<svg width="110" height="110" viewBox="0 0 110 110" fill="none" xmlns="http://www.w3.org/2000/svg">
<mask id="mask0_14_50" style="mask-type:luminance" maskUnits="userSpaceOnUse" x="0" y="0" width="110" height="110">
<path d="M110 0H0V110H110V0Z" fill="white"/>
</mask>
<g mask="url(#mask0_14_50)">
<path d="M95.1041 86.3225V98.725C95.1041 99.8983 94.4349 100.962 93.3808 101.475C84.4524 105.82 73.4616 108.387 61.5724 108.387C49.6833 108.387 38.6924 105.82 29.7641 101.475C28.7099 100.962 28.0408 99.8983 28.0408 98.725V86.3225C28.0408 84.3792 29.1866 82.61 30.9741 81.8308L45.9158 75.2492C47.6666 74.4792 48.7941 72.7467 48.7941 70.84V54.7433H74.3783V70.84C74.3783 72.7467 75.5058 74.4792 77.2566 75.2492L92.1983 81.8308C93.9766 82.6192 95.1316 84.3792 95.1316 86.3225" fill="#F7BC94"/>
<path d="M92.18 81.8308L77.2383 75.2492C75.4875 74.4792 74.36 72.7467 74.36 70.84V54.7433H48.7758V66.0183C52.6533 70.5742 57.5666 73.9567 61.2425 73.9567H66.9167C67.6408 73.9567 68.4108 73.8192 69.2083 73.5808V74.4975C69.2083 76.4042 70.3358 78.1367 72.0867 78.9067L87.0283 85.4883C88.8067 86.2767 89.9616 88.0367 89.9616 89.98V102.383C89.9616 102.612 89.9341 102.832 89.8883 103.052C91.0708 102.566 92.2441 102.043 93.39 101.484C94.4441 100.971 95.1133 99.9075 95.1133 98.7342V86.3317C95.1133 84.3883 93.9675 82.6192 92.18 81.84" fill="#E49775"/>
<path d="M92.18 81.8308L77.2383 75.2492C76.8258 75.0658 76.45 74.8275 76.1017 74.5433C73.9567 80.4925 68.255 84.7458 61.5725 84.7458C54.89 84.7458 49.1883 80.4925 47.0433 74.5433C46.695 74.8275 46.3192 75.0658 45.9067 75.2492L30.965 81.8308C29.1867 82.6192 28.0317 84.3792 28.0317 86.3225V98.725C28.0317 99.8983 28.7008 100.962 29.755 101.475C38.6833 105.82 49.6742 108.387 61.5633 108.387C73.4525 108.387 84.4433 105.82 93.3717 101.475C94.4258 100.962 95.095 99.8983 95.095 98.725V86.3225C95.095 84.3792 93.9492 82.61 92.1617 81.8308" fill="#E4EDF4"/>
<path d="M95.1042 98.7342C95.0859 85.8917 95.1684 86.075 94.985 85.2592C94.6459 83.7375 93.6009 82.4634 92.1709 81.84C77.4217 75.2125 77.1742 75.4417 76.1017 74.5525C75.4509 76.34 74.4884 77.99 73.2417 79.42L87.0192 85.4975C88.7975 86.2858 89.9525 88.0459 89.9525 89.9892C89.925 102.969 90.0167 102.438 89.8792 103.061C91.4192 102.428 93.2617 101.567 93.5734 101.393C94.5175 100.852 95.1042 99.8434 95.1042 98.7434" fill="#B3CADA"/>
<path d="M95.1134 94.8842V98.7342C95.1134 99.9075 94.435 100.971 93.39 101.484C90.805 102.74 88.0458 103.849 85.14 104.784V97.9733L95.1134 94.8842Z" fill="#F7BC94"/>
<path d="M89.9525 96.4792C89.9525 102.768 89.9892 102.548 89.8792 103.043C92.9958 101.759 94.2608 101.319 94.8567 99.935C95.0217 99.55 95.1041 99.1467 95.1041 98.725C95.1041 97.2858 95.1041 96.0117 95.1041 94.875L89.9433 96.47L89.9525 96.4792Z" fill="#E49775"/>
<path d="M38.005 97.9733V104.784C35.0992 103.84 32.34 102.74 29.755 101.484C28.7008 100.971 28.0317 99.9075 28.0317 98.7342V94.8842L38.005 97.9733Z" fill="#F7BC94"/>
<path d="M85.14 97.9733L95.1134 94.8842" stroke="black" stroke-width="3.52" stroke-linecap="round" stroke-linejoin="round"/>
<path d="M28.0317 94.8842L38.005 97.9733" stroke="black" stroke-width="3.52" stroke-linecap="round" stroke-linejoin="round"/>
<path d="M95.1041 94.0958V98.7342C95.1041 99.9075 94.4349 100.971 93.3808 101.484C84.4524 105.829 73.4616 108.396 61.5724 108.396C49.6833 108.396 38.6924 105.829 29.7641 101.484C28.7099 100.971 28.0408 99.9075 28.0408 98.7342V86.3317C28.0408 84.3883 29.1866 82.6192 30.9741 81.84L45.9158 75.2583C47.6666 74.4883 48.7941 72.7558 48.7941 70.8492V54.7525H74.3783V70.8492C74.3783 72.7558 75.5058 74.4883 77.2566 75.2583L92.1983 81.84C93.9766 82.6283 95.1316 84.3883 95.1316 86.3317V87.6517" stroke="black" stroke-width="3.52" stroke-linecap="round" stroke-linejoin="round"/>
<path d="M85.14 93.3717V104.784" stroke="black" stroke-width="3.52" stroke-linecap="round" stroke-linejoin="round"/>
<path d="M38.0049 93.3717V104.784" stroke="black" stroke-width="3.52" stroke-linecap="round" stroke-linejoin="round"/>
<path d="M76.1017 74.5433C73.9567 80.4925 68.255 84.7458 61.5725 84.7458C54.89 84.7458 49.1883 80.4925 47.0433 74.5433" stroke="black" stroke-width="3.52" stroke-linecap="round" stroke-linejoin="round"/>
<path d="M87.8716 43.3583L87.8533 16.8392H35.3008L35.2825 43.3583H87.8808H87.8716Z" fill="#F4D34C"/>
<path d="M84.4525 40.1225H78.3383V52.7634H84.4525C87.1291 52.7634 89.3016 50.5909 89.3016 47.9142V44.9717C89.3016 42.295 87.1291 40.1225 84.4525 40.1225Z" fill="#F7BC94"/>
<path d="M38.6833 40.1225H44.7975V52.7634H38.6833C36.0067 52.7634 33.8342 50.5909 33.8342 47.9142V44.9717C33.8342 42.295 36.0067 40.1225 38.6833 40.1225Z" fill="#F7BC94"/>
<path d="M84.4525 40.1225H78.3383V52.7634H84.4525C87.1291 52.7634 89.3016 50.5909 89.3016 47.9142V44.9717C89.3016 42.295 87.1291 40.1225 84.4525 40.1225Z" stroke="black" stroke-width="3.52" stroke-linecap="round" stroke-linejoin="round"/>
<path d="M38.6833 40.1225H44.7975V52.7634H38.6833C36.0067 52.7634 33.8342 50.5909 33.8342 47.9142V44.9717C33.8342 42.295 36.0067 40.1225 38.6833 40.1225Z" stroke="black" stroke-width="3.52" stroke-linecap="round" stroke-linejoin="round"/>
<path d="M83.1966 46.805C83.1966 56.045 71.4908 68.6583 64.4141 68.6583H58.74C51.6633 68.6583 39.9575 56.045 39.9575 46.805L39.9758 21.5783H83.1783L83.1966 46.805Z" fill="#F7BC94"/>
<path d="M83.1692 21.5692H77.4675L77.4858 46.7958C77.4858 56.0358 67.1458 68.6492 60.8942 68.6492H64.3958C71.4725 68.6492 83.1783 56.0358 83.1783 46.7958L83.16 21.5692H83.1692Z" fill="#E49775"/>
<path d="M58.6667 73.3792C54.0008 73.3792 48.2167 69.9967 43.2117 64.3317C36.0433 56.2283 35.2642 49.3992 35.2642 46.8325L35.2917 16.8392H87.8442L87.8717 46.8325C87.8717 49.3992 87.1017 56.2283 79.9242 64.3317C74.91 69.9967 69.135 73.3792 64.4692 73.3792H58.6667Z" stroke="black" stroke-width="3.52" stroke-linecap="round" stroke-linejoin="round"/>
<path d="M83.1966 46.805C83.1966 56.045 71.4908 68.6583 64.4141 68.6583H58.74C51.6633 68.6583 39.9575 56.045 39.9575 46.805L39.9758 21.5783H83.1783L83.1966 46.805Z" stroke="black" stroke-width="3.52" stroke-linecap="round" stroke-linejoin="round"/>
<path d="M52.14 41.9558V42.6342" stroke="black" stroke-width="3.52" stroke-linecap="round" stroke-linejoin="round"/>
<path d="M71.0049 41.9558V42.6342" stroke="black" stroke-width="3.52" stroke-linecap="round" stroke-linejoin="round"/>
<path d="M67.2192 36.3734C69.63 35.1909 72.05 35.1909 74.4608 36.3734" stroke="black" stroke-width="3.52" stroke-linecap="round" stroke-linejoin="round"/>
<path d="M55.9258 36.3734C53.515 35.1909 51.095 35.1909 48.6841 36.3734" stroke="black" stroke-width="3.52" stroke-linecap="round" stroke-linejoin="round"/>
<path d="M56.8058 50.7925C58.1808 51.7458 59.8216 52.2958 61.5725 52.2958C63.3233 52.2958 64.9641 51.7458 66.3391 50.7925" stroke="black" stroke-width="3.52" stroke-linecap="round" stroke-linejoin="round"/>
<path d="M61.5725 29.5534H46.1908C44.7883 29.5534 43.4683 30.2317 42.6616 31.3775L41.1033 33.5684C40.2875 34.7142 38.9766 35.3925 37.5741 35.3925H31.5058C31.1483 35.3925 30.8641 35.0992 30.8641 34.7509V23.8517C30.8641 15.6292 36.0616 1.62253 61.5816 1.62253C87.1016 1.62253 92.2991 15.6292 92.2991 23.8517V34.7509C92.2991 35.1084 92.0058 35.3925 91.6575 35.3925H85.5891C84.1866 35.3925 82.8666 34.7142 82.06 33.5684L80.5016 31.3775C79.6858 30.2317 78.375 29.5534 76.9725 29.5534H61.6H61.5725Z" fill="#52668D"/>
<path d="M61.5725 1.61334C60.5275 1.61334 59.5192 1.64084 58.5383 1.68668C81.4367 2.75918 86.2217 15.9592 86.2217 23.8517V34.7508C86.2217 35.1083 85.9375 35.3925 85.58 35.3925H91.6575C92.015 35.3925 92.2992 35.1083 92.2992 34.7508V23.8517C92.2992 15.6292 87.1017 1.62251 61.5817 1.62251" fill="#243B5D"/>
<path d="M44.33 4.57418C48.6567 2.75001 54.285 1.61334 61.5725 1.61334C87.0925 1.61334 92.29 15.62 92.29 23.8425V34.7417C92.29 35.0992 91.9967 35.3833 91.6483 35.3833H85.58C84.1775 35.3833 82.8575 34.705 82.0508 33.5592L80.4925 31.3683C79.6767 30.2225 78.3658 29.5442 76.9633 29.5442H46.2092C44.8067 29.5442 43.4867 30.2225 42.68 31.3683L41.1217 33.5592C40.3058 34.705 38.995 35.3833 37.5925 35.3833H31.5242C31.1667 35.3833 30.8825 35.09 30.8825 34.7417V23.8425C30.8825 19.2133 32.5233 12.76 38.5092 7.99334" stroke="black" stroke-width="3.52" stroke-linecap="round" stroke-linejoin="round"/>
<path d="M53.5884 14.3642C51.81 14.3642 50.3617 15.8125 50.3617 17.5908C50.3617 19.3692 51.8009 20.8175 53.5884 20.8175C55.3759 20.8175 56.815 19.3692 56.815 17.5908C56.815 15.8125 55.3667 14.3642 53.5884 14.3642Z" fill="#243B5D"/>
<path d="M69.5566 14.3642C67.7783 14.3642 66.33 15.8125 66.33 17.5908C66.33 19.3692 67.7691 20.8175 69.5566 20.8175C71.3441 20.8175 72.7833 19.3692 72.7833 17.5908C72.7833 15.8125 71.335 14.3642 69.5566 14.3642Z" fill="#243B5D"/>
<path d="M53.5884 14.3642C51.81 14.3642 50.3617 15.8125 50.3617 17.5908C50.3617 19.3692 51.8009 20.8175 53.5884 20.8175C55.3759 20.8175 56.815 19.3692 56.815 17.5908C56.815 15.8125 55.3667 14.3642 53.5884 14.3642Z" stroke="black" stroke-width="3.52" stroke-linecap="round" stroke-linejoin="round"/>
<path d="M69.5566 14.3642C67.7783 14.3642 66.33 15.8125 66.33 17.5908C66.33 19.3692 67.7691 20.8175 69.5566 20.8175C71.3441 20.8175 72.7833 19.3692 72.7833 17.5908C72.7833 15.8125 71.335 14.3642 69.5566 14.3642Z" stroke="black" stroke-width="3.52" stroke-linecap="round" stroke-linejoin="round"/>
<path d="M29.8742 67.4942C21.5967 67.4942 14.8867 74.2042 14.8867 82.4817V108.387H44.8617V82.4817C44.8617 74.2042 38.1517 67.4942 29.8742 67.4942Z" fill="#22A948"/>
<path d="M29.8742 67.4942C21.5967 67.4942 14.8867 74.2042 14.8867 82.4817V108.387H44.8617V82.4817C44.8617 74.2042 38.1517 67.4942 29.8742 67.4942Z" stroke="black" stroke-width="3.52" stroke-linecap="round" stroke-linejoin="round"/>
<path d="M23.2741 85.3692H21.45C20.4325 85.3692 19.6166 86.1942 19.6166 87.2117V95.0583C19.6166 96.0758 20.4416 96.8917 21.45 96.9008H23.2741C24.2916 96.9008 25.1166 96.0758 25.1166 95.0583V87.2117C25.1166 86.1942 24.2916 85.3692 23.2741 85.3692Z" fill="#52668D"/>
<path d="M38.3075 85.3692H36.4833C35.4658 85.3692 34.65 86.1942 34.65 87.2117V95.0583C34.65 96.0758 35.475 96.8917 36.4833 96.9008H38.3075C39.325 96.9008 40.15 96.0758 40.15 95.0583V87.2117C40.15 86.1942 39.325 85.3692 38.3075 85.3692Z" fill="#52668D"/>
<path d="M23.2741 85.3692H21.45C20.4325 85.3692 19.6166 86.1942 19.6166 87.2117V95.0583C19.6166 96.0758 20.4416 96.8917 21.45 96.9008H23.2741C24.2916 96.9008 25.1166 96.0758 25.1166 95.0583V87.2117C25.1166 86.1942 24.2916 85.3692 23.2741 85.3692Z" stroke="black" stroke-width="3.52" stroke-linecap="round" stroke-linejoin="round"/>
<path d="M38.3075 85.3692H36.4833C35.4658 85.3692 34.65 86.1942 34.65 87.2117V95.0583C34.65 96.0758 35.475 96.8917 36.4833 96.9008H38.3075C39.325 96.9008 40.15 96.0758 40.15 95.0583V87.2117C40.15 86.1942 39.325 85.3692 38.3075 85.3692Z" stroke="black" stroke-width="3.52" stroke-linecap="round" stroke-linejoin="round"/>
<path d="M34.6409 89.1183H25.1075V93.1517H28.1142C28.4992 93.7475 29.1684 94.105 29.8742 94.105C30.58 94.105 31.2492 93.7475 31.6342 93.1517H34.6409V89.1183Z" fill="#E4EDF4"/>
<path d="M34.6409 89.1183H25.1075V93.1517H28.1142C28.4992 93.7475 29.1684 94.105 29.8742 94.105C30.58 94.105 31.2492 93.7475 31.6342 93.1517H34.6409V89.1183Z" stroke="black" stroke-width="3.52" stroke-linecap="round" stroke-linejoin="round"/>
</g>
</svg>
