<?xml version="1.0" encoding="UTF-8"?>
<svg id="Layer_2" data-name="Layer 2" xmlns="http://www.w3.org/2000/svg" xmlns:xlink="http://www.w3.org/1999/xlink" viewBox="0 0 120 120">
  <defs>
    <style>
      .cls-1 {
        fill: #f7bc94;
      }

      .cls-1, .cls-2, .cls-3, .cls-4, .cls-5, .cls-6, .cls-7, .cls-8, .cls-9 {
        stroke-width: 0px;
      }

      .cls-2 {
        fill: #e49775;
      }

      .cls-3 {
        fill: #52668d;
      }

      .cls-10 {
        stroke: #000;
        stroke-linecap: round;
        stroke-linejoin: round;
        stroke-width: 3.52px;
      }

      .cls-10, .cls-5 {
        fill: none;
      }

      .cls-4 {
        fill: #f4d34c;
      }

      .cls-6 {
        fill: #b3cada;
      }

      .cls-7 {
        fill: #243b5d;
      }

      .cls-11 {
        clip-path: url(#clippath);
      }

      .cls-8 {
        fill: #22a948;
      }

      .cls-9 {
        fill: #e4edf4;
      }
    </style>
    <clipPath id="clippath">
      <rect class="cls-5" width="120" height="120"/>
    </clipPath>
  </defs>
  <g id="Layer_1-2" data-name="Layer 1">
    <g class="cls-11">
      <g>
        <path class="cls-1" d="M103.75,94.17v13.53c0,1.28-.73,2.44-1.88,3-9.74,4.74-21.73,7.54-34.7,7.54s-24.96-2.8-34.7-7.54c-1.15-.56-1.88-1.72-1.88-3v-13.53c0-2.12,1.25-4.05,3.2-4.9l16.3-7.18c1.91-.84,3.14-2.73,3.14-4.81v-17.56h27.91v17.56c0,2.08,1.23,3.97,3.14,4.81l16.3,7.18c1.94.86,3.2,2.78,3.2,4.9"/>
        <path class="cls-2" d="M100.56,89.27l-16.3-7.18c-1.91-.84-3.14-2.73-3.14-4.81v-17.56h-27.91v12.3c4.23,4.97,9.59,8.66,13.6,8.66h6.19c.79,0,1.63-.15,2.5-.41v1c0,2.08,1.23,3.97,3.14,4.81l16.3,7.18c1.94.86,3.2,2.78,3.2,4.9v13.53c0,.25-.03.49-.08.73,1.29-.53,2.57-1.1,3.82-1.71,1.15-.56,1.88-1.72,1.88-3v-13.53c0-2.12-1.25-4.05-3.2-4.9"/>
        <path class="cls-9" d="M100.56,89.27l-16.3-7.18c-.45-.2-.86-.46-1.24-.77-2.34,6.49-8.56,11.13-15.85,11.13s-13.51-4.64-15.85-11.13c-.38.31-.79.57-1.24.77l-16.3,7.18c-1.94.86-3.2,2.78-3.2,4.9v13.53c0,1.28.73,2.44,1.88,3,9.74,4.74,21.73,7.54,34.7,7.54s24.96-2.8,34.7-7.54c1.15-.56,1.88-1.72,1.88-3v-13.53c0-2.12-1.25-4.05-3.2-4.9"/>
        <path class="cls-6" d="M103.75,107.71c-.02-14.01.07-13.81-.13-14.7-.37-1.66-1.51-3.05-3.07-3.73-16.09-7.23-16.36-6.98-17.53-7.95h0c-.71,1.95-1.76,3.75-3.12,5.31l15.03,6.63c1.94.86,3.2,2.78,3.2,4.9-.03,14.16.07,13.58-.08,14.26,1.68-.69,3.69-1.63,4.03-1.82,1.03-.59,1.67-1.69,1.67-2.89"/>
        <path class="cls-1" d="M103.76,103.51v4.2c0,1.28-.74,2.44-1.88,3-2.82,1.37-5.83,2.58-9,3.6v-7.43l10.88-3.37Z"/>
        <path class="cls-2" d="M98.13,105.25c0,6.86.04,6.62-.08,7.16,3.4-1.4,4.78-1.88,5.43-3.39.18-.42.27-.86.27-1.32,0-1.57,0-2.96,0-4.2l-5.63,1.74Z"/>
        <path class="cls-1" d="M41.46,106.88v7.43c-3.17-1.03-6.18-2.23-9-3.6-1.15-.56-1.88-1.72-1.88-3v-4.2l10.88,3.37Z"/>
        <path class="cls-10" d="M92.88,106.88l10.88-3.37"/>
        <path class="cls-10" d="M30.58,103.51l10.88,3.37"/>
        <path class="cls-10" d="M103.75,102.65v5.06c0,1.28-.73,2.44-1.88,3-9.74,4.74-21.73,7.54-34.7,7.54s-24.96-2.8-34.7-7.54c-1.15-.56-1.88-1.72-1.88-3v-13.53c0-2.12,1.25-4.05,3.2-4.9l16.3-7.18c1.91-.84,3.14-2.73,3.14-4.81v-17.56h27.91v17.56c0,2.08,1.23,3.97,3.14,4.81l16.3,7.18c1.94.86,3.2,2.78,3.2,4.9v1.44"/>
        <path class="cls-10" d="M92.88,101.86v12.45"/>
        <path class="cls-10" d="M41.46,101.86v12.45"/>
        <path class="cls-10" d="M83.02,81.32c-2.34,6.49-8.56,11.13-15.85,11.13s-13.51-4.64-15.85-11.13"/>
        <path class="cls-4" d="M95.86,47.3l-.02-28.93h-57.33l-.02,28.93h57.38Z"/>
        <path class="cls-1" d="M92.13,43.77h-6.67v13.79h6.67c2.92,0,5.29-2.37,5.29-5.29v-3.21c0-2.92-2.37-5.29-5.29-5.29"/>
        <path class="cls-1" d="M42.2,43.77h6.67v13.79h-6.67c-2.92,0-5.29-2.37-5.29-5.29v-3.21c0-2.92,2.37-5.29,5.29-5.29"/>
        <path class="cls-10" d="M92.13,43.77h-6.67v13.79h6.67c2.92,0,5.29-2.37,5.29-5.29v-3.21c0-2.92-2.37-5.29-5.29-5.29Z"/>
        <path class="cls-10" d="M42.2,43.77h6.67v13.79h-6.67c-2.92,0-5.29-2.37-5.29-5.29v-3.21c0-2.92,2.37-5.29,5.29-5.29Z"/>
        <path class="cls-1" d="M90.76,51.06c0,10.08-12.77,23.84-20.49,23.84h-6.19c-7.72,0-20.49-13.76-20.49-23.84l.02-27.52h47.13l.02,27.52Z"/>
        <path class="cls-2" d="M90.73,23.53h-6.22l.02,27.52c0,10.08-11.28,23.84-18.1,23.84h3.82c7.72,0,20.49-13.76,20.49-23.84l-.02-27.52Z"/>
        <path class="cls-10" d="M64,80.05c-5.09,0-11.4-3.69-16.86-9.87-7.82-8.84-8.67-16.29-8.67-19.09l.03-32.72h57.33l.03,32.72c0,2.8-.84,10.25-8.67,19.09-5.47,6.18-11.77,9.87-16.86,9.87h-6.33Z"/>
        <path class="cls-10" d="M90.76,51.06c0,10.08-12.77,23.84-20.49,23.84h-6.19c-7.72,0-20.49-13.76-20.49-23.84l.02-27.52h47.13l.02,27.52Z"/>
        <path class="cls-10" d="M56.88,45.77v.74"/>
        <path class="cls-10" d="M77.46,45.77v.74"/>
        <path class="cls-10" d="M73.33,39.68c2.63-1.29,5.27-1.29,7.9,0"/>
        <path class="cls-10" d="M61.01,39.68c-2.63-1.29-5.27-1.29-7.9,0"/>
        <path class="cls-10" d="M61.97,55.41c1.5,1.04,3.29,1.64,5.2,1.64s3.7-.6,5.2-1.64"/>
        <path class="cls-3" d="M67.17,32.24h-16.78c-1.53,0-2.97.74-3.85,1.99l-1.7,2.39c-.89,1.25-2.32,1.99-3.85,1.99h-6.62c-.39,0-.7-.32-.7-.7v-11.89c0-8.97,5.67-24.25,33.51-24.25s33.51,15.28,33.51,24.25v11.89c0,.39-.32.7-.7.7h-6.62c-1.53,0-2.97-.74-3.85-1.99l-1.7-2.39c-.89-1.25-2.32-1.99-3.85-1.99h-16.77Z"/>
        <path class="cls-7" d="M67.17,1.76c-1.14,0-2.24.03-3.31.08,24.98,1.17,30.2,15.57,30.2,24.18v11.89c0,.39-.31.7-.7.7h6.63c.39,0,.7-.31.7-.7v-11.89c0-8.97-5.67-24.25-33.51-24.25"/>
        <path class="cls-10" d="M48.36,4.99c4.72-1.99,10.86-3.23,18.81-3.23,27.84,0,33.51,15.28,33.51,24.25v11.89c0,.39-.32.7-.7.7h-6.62c-1.53,0-2.97-.74-3.85-1.99l-1.7-2.39c-.89-1.25-2.32-1.99-3.85-1.99h-33.55c-1.53,0-2.97.74-3.85,1.99l-1.7,2.39c-.89,1.25-2.32,1.99-3.85,1.99h-6.62c-.39,0-.7-.32-.7-.7v-11.89c0-5.05,1.79-12.09,8.32-17.29"/>
        <path class="cls-7" d="M58.46,15.67c-1.94,0-3.52,1.58-3.52,3.52s1.57,3.52,3.52,3.52,3.52-1.58,3.52-3.52-1.58-3.52-3.52-3.52"/>
        <path class="cls-7" d="M75.88,15.67c-1.94,0-3.52,1.58-3.52,3.52s1.57,3.52,3.52,3.52,3.52-1.58,3.52-3.52-1.58-3.52-3.52-3.52"/>
        <path class="cls-10" d="M58.46,15.67c-1.94,0-3.52,1.58-3.52,3.52s1.57,3.52,3.52,3.52,3.52-1.58,3.52-3.52-1.58-3.52-3.52-3.52Z"/>
        <path class="cls-10" d="M75.88,15.67c-1.94,0-3.52,1.58-3.52,3.52s1.57,3.52,3.52,3.52,3.52-1.58,3.52-3.52-1.58-3.52-3.52-3.52Z"/>
        <path class="cls-8" d="M32.59,73.63c-9.03,0-16.35,7.32-16.35,16.35v28.26h32.7v-28.26c0-9.03-7.32-16.35-16.35-16.35"/>
        <path class="cls-10" d="M32.59,73.63h0c-9.03,0-16.35,7.32-16.35,16.35v28.26h32.7v-28.26c0-9.03-7.32-16.35-16.35-16.35Z"/>
        <path class="cls-3" d="M25.39,93.13h-1.99c-1.11,0-2,.9-2,2.01v8.56c0,1.11.9,2,2,2.01h1.99c1.11,0,2.01-.9,2.01-2.01h0v-8.56c0-1.11-.9-2.01-2.01-2.01h0"/>
        <path class="cls-3" d="M41.79,93.13h-1.99c-1.11,0-2,.9-2,2.01v8.56c0,1.11.9,2,2,2.01h1.99c1.11,0,2.01-.9,2.01-2.01h0v-8.56c0-1.11-.9-2.01-2.01-2.01h0"/>
        <path class="cls-10" d="M25.39,93.13h-1.99c-1.11,0-2,.9-2,2.01v8.56c0,1.11.9,2,2,2.01h1.99c1.11,0,2.01-.9,2.01-2.01h0v-8.56c0-1.11-.9-2.01-2.01-2.01h0Z"/>
        <path class="cls-10" d="M41.79,93.13h-1.99c-1.11,0-2,.9-2,2.01v8.56c0,1.11.9,2,2,2.01h1.99c1.11,0,2.01-.9,2.01-2.01h0v-8.56c0-1.11-.9-2.01-2.01-2.01h0Z"/>
        <path class="cls-9" d="M37.79,97.22h-10.4v4.4h3.28c.42.65,1.15,1.04,1.92,1.04.77,0,1.5-.39,1.92-1.04h3.28v-4.4Z"/>
        <path class="cls-10" d="M37.79,97.22h-10.4v4.4h3.28c.42.65,1.15,1.04,1.92,1.04.77,0,1.5-.39,1.92-1.04h3.28v-4.4Z"/>
      </g>
    </g>
  </g>
</svg>