<svg width="120" height="120" viewBox="0 0 120 120" fill="none" xmlns="http://www.w3.org/2000/svg">
<g clip-path="url(#clip0_14_2)">
<mask id="mask0_14_2" style="mask-type:luminance" maskUnits="userSpaceOnUse" x="0" y="0" width="120" height="120">
<path d="M120 0H0V120H120V0Z" fill="white"/>
</mask>
<g mask="url(#mask0_14_2)">
<path d="M103.75 94.17V107.7C103.75 108.98 103.02 110.14 101.87 110.7C92.13 115.44 80.14 118.24 67.17 118.24C54.2 118.24 42.21 115.44 32.47 110.7C31.32 110.14 30.59 108.98 30.59 107.7V94.17C30.59 92.05 31.84 90.12 33.79 89.27L50.09 82.09C52 81.25 53.23 79.36 53.23 77.28V59.72H81.14V77.28C81.14 79.36 82.37 81.25 84.28 82.09L100.58 89.27C102.52 90.13 103.78 92.05 103.78 94.17" fill="#F7BC94"/>
<path d="M100.56 89.27L84.26 82.09C82.35 81.25 81.12 79.36 81.12 77.28V59.72H53.21V72.02C57.44 76.99 62.8 80.68 66.81 80.68H73C73.79 80.68 74.63 80.53 75.5 80.27V81.27C75.5 83.35 76.73 85.24 78.64 86.08L94.94 93.26C96.88 94.12 98.14 96.04 98.14 98.16V111.69C98.14 111.94 98.11 112.18 98.06 112.42C99.35 111.89 100.63 111.32 101.88 110.71C103.03 110.15 103.76 108.99 103.76 107.71V94.18C103.76 92.06 102.51 90.13 100.56 89.28" fill="#E49775"/>
<path d="M100.56 89.27L84.26 82.09C83.81 81.89 83.4 81.63 83.02 81.32C80.68 87.81 74.46 92.45 67.17 92.45C59.88 92.45 53.66 87.81 51.32 81.32C50.94 81.63 50.53 81.89 50.08 82.09L33.78 89.27C31.84 90.13 30.58 92.05 30.58 94.17V107.7C30.58 108.98 31.31 110.14 32.46 110.7C42.2 115.44 54.19 118.24 67.16 118.24C80.13 118.24 92.12 115.44 101.86 110.7C103.01 110.14 103.74 108.98 103.74 107.7V94.17C103.74 92.05 102.49 90.12 100.54 89.27" fill="#E4EDF4"/>
<path d="M103.75 107.71C103.73 93.7 103.82 93.9 103.62 93.01C103.25 91.35 102.11 89.96 100.55 89.28C84.46 82.05 84.19 82.3 83.02 81.33C82.31 83.28 81.26 85.08 79.9 86.64L94.93 93.27C96.87 94.13 98.13 96.05 98.13 98.17C98.1 112.33 98.2 111.75 98.05 112.43C99.73 111.74 101.74 110.8 102.08 110.61C103.11 110.02 103.75 108.92 103.75 107.72" fill="#B3CADA"/>
<path d="M103.76 103.51V107.71C103.76 108.99 103.02 110.15 101.88 110.71C99.06 112.08 96.05 113.29 92.88 114.31V106.88L103.76 103.51Z" fill="#F7BC94"/>
<path d="M98.13 105.25C98.13 112.11 98.17 111.87 98.05 112.41C101.45 111.01 102.83 110.53 103.48 109.02C103.66 108.6 103.75 108.16 103.75 107.7C103.75 106.13 103.75 104.74 103.75 103.5L98.12 105.24L98.13 105.25Z" fill="#E49775"/>
<path d="M41.46 106.88V114.31C38.29 113.28 35.28 112.08 32.46 110.71C31.31 110.15 30.58 108.99 30.58 107.71V103.51L41.46 106.88Z" fill="#F7BC94"/>
<path d="M92.88 106.88L103.76 103.51" stroke="black" stroke-width="3.52" stroke-linecap="round" stroke-linejoin="round"/>
<path d="M30.58 103.51L41.46 106.88" stroke="black" stroke-width="3.52" stroke-linecap="round" stroke-linejoin="round"/>
<path d="M103.75 102.65V107.71C103.75 108.99 103.02 110.15 101.87 110.71C92.13 115.45 80.14 118.25 67.17 118.25C54.2 118.25 42.21 115.45 32.47 110.71C31.32 110.15 30.59 108.99 30.59 107.71V94.18C30.59 92.06 31.84 90.13 33.79 89.28L50.09 82.1C52 81.26 53.23 79.37 53.23 77.29V59.73H81.14V77.29C81.14 79.37 82.37 81.26 84.28 82.1L100.58 89.28C102.52 90.14 103.78 92.06 103.78 94.18V95.62" stroke="black" stroke-width="3.52" stroke-linecap="round" stroke-linejoin="round"/>
<path d="M92.88 101.86V114.31" stroke="black" stroke-width="3.52" stroke-linecap="round" stroke-linejoin="round"/>
<path d="M41.46 101.86V114.31" stroke="black" stroke-width="3.52" stroke-linecap="round" stroke-linejoin="round"/>
<path d="M83.02 81.32C80.68 87.81 74.46 92.45 67.17 92.45C59.88 92.45 53.66 87.81 51.32 81.32" stroke="black" stroke-width="3.52" stroke-linecap="round" stroke-linejoin="round"/>
<path d="M95.86 47.3L95.84 18.37H38.51L38.49 47.3H95.87H95.86Z" fill="#F4D34C"/>
<path d="M92.13 43.77H85.46V57.56H92.13C95.05 57.56 97.42 55.19 97.42 52.27V49.06C97.42 46.14 95.05 43.77 92.13 43.77Z" fill="#F7BC94"/>
<path d="M42.2 43.77H48.87V57.56H42.2C39.28 57.56 36.91 55.19 36.91 52.27V49.06C36.91 46.14 39.28 43.77 42.2 43.77Z" fill="#F7BC94"/>
<path d="M92.13 43.77H85.46V57.56H92.13C95.05 57.56 97.42 55.19 97.42 52.27V49.06C97.42 46.14 95.05 43.77 92.13 43.77Z" stroke="black" stroke-width="3.52" stroke-linecap="round" stroke-linejoin="round"/>
<path d="M42.2 43.77H48.87V57.56H42.2C39.28 57.56 36.91 55.19 36.91 52.27V49.06C36.91 46.14 39.28 43.77 42.2 43.77Z" stroke="black" stroke-width="3.52" stroke-linecap="round" stroke-linejoin="round"/>
<path d="M90.76 51.06C90.76 61.14 77.99 74.9 70.27 74.9H64.08C56.36 74.9 43.59 61.14 43.59 51.06L43.61 23.54H90.74L90.76 51.06Z" fill="#F7BC94"/>
<path d="M90.73 23.53H84.51L84.53 51.05C84.53 61.13 73.25 74.89 66.43 74.89H70.25C77.97 74.89 90.74 61.13 90.74 51.05L90.72 23.53H90.73Z" fill="#E49775"/>
<path d="M64 80.05C58.91 80.05 52.6 76.36 47.14 70.18C39.32 61.34 38.47 53.89 38.47 51.09L38.5 18.37H95.83L95.86 51.09C95.86 53.89 95.02 61.34 87.19 70.18C81.72 76.36 75.42 80.05 70.33 80.05H64Z" stroke="black" stroke-width="3.52" stroke-linecap="round" stroke-linejoin="round"/>
<path d="M90.76 51.06C90.76 61.14 77.99 74.9 70.27 74.9H64.08C56.36 74.9 43.59 61.14 43.59 51.06L43.61 23.54H90.74L90.76 51.06Z" stroke="black" stroke-width="3.52" stroke-linecap="round" stroke-linejoin="round"/>
<path d="M56.88 45.77V46.51" stroke="black" stroke-width="3.52" stroke-linecap="round" stroke-linejoin="round"/>
<path d="M77.46 45.77V46.51" stroke="black" stroke-width="3.52" stroke-linecap="round" stroke-linejoin="round"/>
<path d="M73.33 39.68C75.96 38.39 78.6 38.39 81.23 39.68" stroke="black" stroke-width="3.52" stroke-linecap="round" stroke-linejoin="round"/>
<path d="M61.01 39.68C58.38 38.39 55.74 38.39 53.11 39.68" stroke="black" stroke-width="3.52" stroke-linecap="round" stroke-linejoin="round"/>
<path d="M61.97 55.41C63.47 56.45 65.26 57.05 67.17 57.05C69.08 57.05 70.87 56.45 72.37 55.41" stroke="black" stroke-width="3.52" stroke-linecap="round" stroke-linejoin="round"/>
<path d="M67.17 32.24H50.39C48.86 32.24 47.42 32.98 46.54 34.23L44.84 36.62C43.95 37.87 42.52 38.61 40.99 38.61H34.37C33.98 38.61 33.67 38.29 33.67 37.91V26.02C33.67 17.05 39.34 1.77002 67.18 1.77002C95.02 1.77002 100.69 17.05 100.69 26.02V37.91C100.69 38.3 100.37 38.61 99.99 38.61H93.37C91.84 38.61 90.4 37.87 89.52 36.62L87.82 34.23C86.93 32.98 85.5 32.24 83.97 32.24H67.2H67.17Z" fill="#52668D"/>
<path d="M67.17 1.76001C66.03 1.76001 64.93 1.79001 63.86 1.84001C88.84 3.01001 94.06 17.41 94.06 26.02V37.91C94.06 38.3 93.75 38.61 93.36 38.61H99.99C100.38 38.61 100.69 38.3 100.69 37.91V26.02C100.69 17.05 95.02 1.77001 67.18 1.77001" fill="#243B5D"/>
<path d="M48.36 4.99001C53.08 3.00001 59.22 1.76001 67.17 1.76001C95.01 1.76001 100.68 17.04 100.68 26.01V37.9C100.68 38.29 100.36 38.6 99.98 38.6H93.36C91.83 38.6 90.39 37.86 89.51 36.61L87.81 34.22C86.92 32.97 85.49 32.23 83.96 32.23H50.41C48.88 32.23 47.44 32.97 46.56 34.22L44.86 36.61C43.97 37.86 42.54 38.6 41.01 38.6H34.39C34 38.6 33.69 38.28 33.69 37.9V26.01C33.69 20.96 35.48 13.92 42.01 8.72001" stroke="black" stroke-width="3.52" stroke-linecap="round" stroke-linejoin="round"/>
<path d="M58.46 15.67C56.52 15.67 54.94 17.25 54.94 19.19C54.94 21.13 56.51 22.71 58.46 22.71C60.41 22.71 61.98 21.13 61.98 19.19C61.98 17.25 60.4 15.67 58.46 15.67Z" fill="#243B5D"/>
<path d="M75.88 15.67C73.94 15.67 72.36 17.25 72.36 19.19C72.36 21.13 73.93 22.71 75.88 22.71C77.83 22.71 79.4 21.13 79.4 19.19C79.4 17.25 77.82 15.67 75.88 15.67Z" fill="#243B5D"/>
<path d="M58.46 15.67C56.52 15.67 54.94 17.25 54.94 19.19C54.94 21.13 56.51 22.71 58.46 22.71C60.41 22.71 61.98 21.13 61.98 19.19C61.98 17.25 60.4 15.67 58.46 15.67Z" stroke="black" stroke-width="3.52" stroke-linecap="round" stroke-linejoin="round"/>
<path d="M75.88 15.67C73.94 15.67 72.36 17.25 72.36 19.19C72.36 21.13 73.93 22.71 75.88 22.71C77.83 22.71 79.4 21.13 79.4 19.19C79.4 17.25 77.82 15.67 75.88 15.67Z" stroke="black" stroke-width="3.52" stroke-linecap="round" stroke-linejoin="round"/>
<path d="M32.59 73.63C23.56 73.63 16.24 80.95 16.24 89.98V118.24H48.94V89.98C48.94 80.95 41.62 73.63 32.59 73.63Z" fill="#22A948"/>
<path d="M32.59 73.63C23.56 73.63 16.24 80.95 16.24 89.98V118.24H48.94V89.98C48.94 80.95 41.62 73.63 32.59 73.63Z" stroke="black" stroke-width="3.52" stroke-linecap="round" stroke-linejoin="round"/>
<path d="M25.39 93.13H23.4C22.29 93.13 21.4 94.03 21.4 95.14V103.7C21.4 104.81 22.3 105.7 23.4 105.71H25.39C26.5 105.71 27.4 104.81 27.4 103.7V95.14C27.4 94.03 26.5 93.13 25.39 93.13Z" fill="#52668D"/>
<path d="M41.79 93.13H39.8C38.69 93.13 37.8 94.03 37.8 95.14V103.7C37.8 104.81 38.7 105.7 39.8 105.71H41.79C42.9 105.71 43.8 104.81 43.8 103.7V95.14C43.8 94.03 42.9 93.13 41.79 93.13Z" fill="#52668D"/>
<path d="M25.39 93.13H23.4C22.29 93.13 21.4 94.03 21.4 95.14V103.7C21.4 104.81 22.3 105.7 23.4 105.71H25.39C26.5 105.71 27.4 104.81 27.4 103.7V95.14C27.4 94.03 26.5 93.13 25.39 93.13Z" stroke="black" stroke-width="3.52" stroke-linecap="round" stroke-linejoin="round"/>
<path d="M41.79 93.13H39.8C38.69 93.13 37.8 94.03 37.8 95.14V103.7C37.8 104.81 38.7 105.7 39.8 105.71H41.79C42.9 105.71 43.8 104.81 43.8 103.7V95.14C43.8 94.03 42.9 93.13 41.79 93.13Z" stroke="black" stroke-width="3.52" stroke-linecap="round" stroke-linejoin="round"/>
<path d="M37.79 97.22H27.39V101.62H30.67C31.09 102.27 31.82 102.66 32.59 102.66C33.36 102.66 34.09 102.27 34.51 101.62H37.79V97.22Z" fill="#E4EDF4"/>
<path d="M37.79 97.22H27.39V101.62H30.67C31.09 102.27 31.82 102.66 32.59 102.66C33.36 102.66 34.09 102.27 34.51 101.62H37.79V97.22Z" stroke="black" stroke-width="3.52" stroke-linecap="round" stroke-linejoin="round"/>
</g>
</g>
<defs>
<clipPath id="clip0_14_2">
<rect width="120" height="120" fill="white"/>
</clipPath>
</defs>
</svg>
