<svg xmlns="http://www.w3.org/2000/svg" viewBox="0 0 500 500"><g id="freepik--background-complete--inject-33"><path d="M69.36,191.46c5.28,0,137-.92,174.15-.92,2.6,0-.69-4.5-2.12-4.81-4.58-1-9.34-1.06-14-1.54a45.56,45.56,0,0,1-13.33-3.34c-3.65-1.54-7.31-3.33-11.27-3.95-7.66-1.2-14.39,2.95-21.57,4.79a16.27,16.27,0,0,1-13.07-1.79c-3.32-2-6.34-4.38-9.81-6.14a53.82,53.82,0,0,0-43-2,50.37,50.37,0,0,0-9.42,4.81c-3.5,2.31-6.53,5.25-10.05,7.53-7.8,5-17.45,3.4-25.95,6.29C69.43,190.58,68.9,191.46,69.36,191.46Z" style="fill:#ebebeb"></path><path d="M260.08,65.52c7,0,124.38.77,131.76.53.53,0,.81-.79.29-1-4.66-2.3-9.93-1.84-14.76-3.47-2.85-1-4.59-2.82-6.57-5a13.53,13.53,0,0,0-6.11-4,12.93,12.93,0,0,0-6.65-.21c-2.38.57-4.45,1.93-6.72,2.79-5.64,2.13-11.12.11-15.15-4.06-3.32-3.44-6.58-6.69-11.1-8.54a14.71,14.71,0,0,0-11.76-.16c-4.31,2-7.26,5.87-11.3,8.23-4.8,2.8-10.53,2.14-15.83,3s-9.36,5.31-14,7.88a9.94,9.94,0,0,1-5.06,1.57c-1,0-2.06-.31-3.08-.44-1.6-.2-3.12-.15-4.2,1.18C259.57,64.14,259.63,65.52,260.08,65.52Z" style="fill:#ebebeb"></path><path d="M46.71,97.41c5.1,0,90.81.57,96.2.4.38,0,.59-.58.21-.77-3.4-1.69-7.25-1.35-10.78-2.54-2.08-.7-3.35-2.06-4.79-3.61A9.92,9.92,0,0,0,123.09,88a9.54,9.54,0,0,0-4.86-.16,42,42,0,0,0-4.91,2c-4.11,1.56-8.12.08-11.06-3-2.42-2.51-4.8-4.88-8.1-6.23a10.78,10.78,0,0,0-8.59-.12c-3.14,1.42-5.3,4.29-8.25,6-3.5,2-7.69,1.56-11.55,2.18s-6.84,3.88-10.23,5.75a7.18,7.18,0,0,1-3.7,1.14,21.71,21.71,0,0,1-2.25-.31,3.08,3.08,0,0,0-3.06.86C46.34,96.41,46.38,97.41,46.71,97.41Z" style="fill:#ebebeb"></path><path d="M357,149.07c5.09,0,90.8.56,96.19.39.39,0,.59-.58.21-.77-3.4-1.68-7.25-1.35-10.78-2.54a11.45,11.45,0,0,1-4.79-3.61,9.87,9.87,0,0,0-4.46-2.91,9.43,9.43,0,0,0-4.86-.15,42.51,42.51,0,0,0-4.9,2c-4.12,1.56-8.12.08-11.06-3-2.43-2.51-4.81-4.88-8.11-6.23a10.76,10.76,0,0,0-8.58-.12c-3.15,1.43-5.3,4.29-8.26,6-3.5,2.05-7.69,1.57-11.55,2.18s-6.84,3.88-10.23,5.75a7.28,7.28,0,0,1-3.69,1.15c-.76,0-1.51-.23-2.26-.32a3.1,3.1,0,0,0-3.06.86C356.6,148.06,356.64,149.07,357,149.07Z" style="fill:#ebebeb"></path><path d="M146.79,149.53c.1.29,135.09,0,133.39,0-.78,0,1.17-1.16.41-1.53-4.39-2.18-9.2-2.24-14-2.68a21.52,21.52,0,0,1-8.17-2c-2.55-1.33-4.13-3.64-5.94-5.78a25.37,25.37,0,0,0-23.05-8.73c-9.6,1.5-17.17,8.81-26.78,10.16-5.78.81-11.24-1.43-16.89-2.22a20.67,20.67,0,0,0-12.67,2.32c-3.05,1.51-5.86,2.78-9.3,3-2.65.19-5.3-.12-7.95-.14a17.8,17.8,0,0,0-11.69,4.67C143.74,147,142.38,149.53,146.79,149.53Z" style="fill:#ebebeb"></path><polygon points="250 224.43 250 351.06 47.96 351.06 47.96 264.56 65.49 264.56 65.49 285.85 70 285.85 70 273.8 92.29 273.8 92.29 292.88 95.24 292.88 95.24 234.39 114.61 234.39 114.61 260.39 124.54 260.39 124.54 275.69 127.55 275.69 127.55 266.07 145.16 266.07 145.16 294.77 150.31 294.77 150.31 271.44 166.41 271.44 166.41 253.71 177.36 253.71 177.36 243.62 190.03 243.62 190.03 288.39 194.29 288.39 194.29 239.17 215.16 239.17 215.16 265.91 218.04 265.91 218.04 244.08 239.21 244.08 239.21 224.43 250 224.43" style="fill:#ebebeb"></polygon><rect x="50.11" y="267.24" width="2.97" height="4.07" style="fill:#fff"></rect><rect x="55.25" y="267.24" width="2.97" height="4.07" style="fill:#fff"></rect><rect x="60.39" y="267.24" width="2.97" height="4.07" style="fill:#fff"></rect><rect x="50.11" y="273.36" width="2.97" height="4.07" style="fill:#fff"></rect><rect x="55.25" y="273.36" width="2.97" height="4.07" style="fill:#fff"></rect><rect x="60.39" y="273.36" width="2.97" height="4.07" style="fill:#fff"></rect><rect x="50.11" y="279.49" width="2.97" height="4.07" style="fill:#fff"></rect><rect x="55.25" y="279.49" width="2.97" height="4.07" style="fill:#fff"></rect><rect x="60.39" y="279.49" width="2.97" height="4.07" style="fill:#fff"></rect><rect x="50.11" y="285.61" width="2.97" height="4.07" style="fill:#fff"></rect><rect x="55.25" y="285.61" width="2.97" height="4.07" style="fill:#fff"></rect><rect x="60.39" y="285.61" width="2.97" height="4.07" style="fill:#fff"></rect><rect x="152.78" y="274.34" width="2.97" height="3.4" style="fill:#fff"></rect><rect x="157.92" y="274.34" width="2.97" height="3.4" style="fill:#fff"></rect><rect x="163.06" y="274.34" width="2.97" height="3.4" style="fill:#fff"></rect><rect x="152.78" y="279.45" width="2.97" height="3.39" style="fill:#fff"></rect><rect x="157.92" y="279.45" width="2.97" height="3.39" style="fill:#fff"></rect><rect x="163.06" y="279.45" width="2.97" height="3.39" style="fill:#fff"></rect><rect x="152.78" y="284.56" width="2.97" height="3.39" style="fill:#fff"></rect><rect x="157.92" y="284.56" width="2.97" height="3.39" style="fill:#fff"></rect><rect x="163.06" y="284.56" width="2.97" height="3.39" style="fill:#fff"></rect><rect x="152.78" y="289.67" width="2.97" height="3.4" style="fill:#fff"></rect><rect x="157.92" y="289.67" width="2.97" height="3.4" style="fill:#fff"></rect><rect x="163.06" y="289.67" width="2.97" height="3.4" style="fill:#fff"></rect><rect x="152.78" y="294.9" width="2.97" height="3.4" style="fill:#fff"></rect><rect x="157.92" y="294.9" width="2.97" height="3.4" style="fill:#fff"></rect><rect x="163.06" y="294.9" width="2.97" height="3.4" style="fill:#fff"></rect><rect x="152.78" y="300.14" width="2.97" height="3.4" style="fill:#fff"></rect><rect x="157.92" y="300.14" width="2.97" height="3.4" style="fill:#fff"></rect><rect x="163.06" y="300.14" width="2.97" height="3.4" style="fill:#fff"></rect><rect x="152.78" y="305.37" width="2.97" height="3.4" style="fill:#fff"></rect><rect x="157.92" y="305.37" width="2.97" height="3.4" style="fill:#fff"></rect><rect x="163.06" y="305.37" width="2.97" height="3.4" style="fill:#fff"></rect><rect x="152.78" y="310.61" width="2.97" height="3.4" style="fill:#fff"></rect><rect x="157.92" y="310.61" width="2.97" height="3.4" style="fill:#fff"></rect><rect x="163.06" y="310.61" width="2.97" height="3.4" style="fill:#fff"></rect><rect x="72.53" y="276.41" width="17.07" height="2.55" style="fill:#fff"></rect><rect x="72.53" y="281.35" width="17.07" height="2.55" style="fill:#fff"></rect><rect x="72.53" y="286.29" width="17.07" height="2.55" style="fill:#fff"></rect><rect x="72.53" y="291.23" width="17.07" height="2.55" style="fill:#fff"></rect><rect x="72.53" y="296.16" width="17.07" height="2.55" style="fill:#fff"></rect><rect x="72.53" y="301.1" width="17.07" height="2.55" style="fill:#fff"></rect><rect x="72.53" y="306.04" width="17.07" height="2.55" style="fill:#fff"></rect><rect x="72.53" y="310.98" width="17.07" height="2.55" style="fill:#fff"></rect><rect x="196.81" y="241.54" width="15.7" height="2.55" style="fill:#fff"></rect><rect x="196.81" y="246.48" width="15.7" height="2.55" style="fill:#fff"></rect><rect x="196.81" y="251.42" width="15.7" height="2.55" style="fill:#fff"></rect><rect x="196.81" y="256.36" width="15.7" height="2.55" style="fill:#fff"></rect><rect x="196.81" y="261.3" width="15.7" height="2.55" style="fill:#fff"></rect><rect x="196.81" y="266.24" width="15.7" height="2.55" style="fill:#fff"></rect><rect x="196.81" y="271.17" width="15.7" height="2.55" style="fill:#fff"></rect><rect x="196.81" y="276.11" width="15.7" height="2.55" style="fill:#fff"></rect><rect x="196.81" y="280.81" width="15.7" height="2.55" style="fill:#fff"></rect><rect x="196.81" y="285.5" width="15.7" height="2.55" style="fill:#fff"></rect><rect x="196.81" y="290.19" width="15.7" height="2.55" style="fill:#fff"></rect><rect x="196.81" y="294.88" width="15.7" height="2.55" style="fill:#fff"></rect><rect x="221.31" y="247.51" width="16.58" height="2.55" style="fill:#fff"></rect><rect x="221.31" y="252.45" width="16.58" height="2.55" style="fill:#fff"></rect><rect x="221.31" y="257.39" width="16.58" height="2.55" style="fill:#fff"></rect><rect x="221.31" y="262.32" width="16.58" height="2.55" style="fill:#fff"></rect><rect x="221.31" y="267.26" width="16.58" height="2.55" style="fill:#fff"></rect><rect x="221.31" y="272.2" width="16.58" height="2.55" style="fill:#fff"></rect><rect x="221.31" y="277.14" width="16.58" height="2.55" style="fill:#fff"></rect><rect x="221.31" y="282.08" width="16.58" height="2.55" style="fill:#fff"></rect><rect x="221.31" y="286.5" width="16.58" height="2.55" style="fill:#fff"></rect><rect x="221.31" y="290.92" width="16.58" height="2.55" style="fill:#fff"></rect><rect x="221.31" y="295.34" width="16.58" height="2.55" style="fill:#fff"></rect><rect x="132.7" y="268.37" width="5.27" height="2.46" style="fill:#fff"></rect><rect x="132.7" y="273.14" width="5.27" height="2.46" style="fill:#fff"></rect><rect x="132.7" y="277.91" width="5.27" height="2.46" style="fill:#fff"></rect><rect x="132.7" y="282.68" width="5.27" height="2.46" style="fill:#fff"></rect><rect x="132.7" y="287.45" width="5.27" height="2.46" style="fill:#fff"></rect><rect x="132.7" y="292.22" width="5.27" height="2.46" style="fill:#fff"></rect><rect x="132.7" y="296.99" width="5.27" height="2.46" style="fill:#fff"></rect><rect x="132.7" y="301.76" width="5.27" height="2.46" style="fill:#fff"></rect><rect x="139.87" y="268.37" width="5.27" height="2.46" style="fill:#fff"></rect><rect x="139.87" y="273.14" width="5.27" height="2.46" style="fill:#fff"></rect><rect x="139.87" y="277.91" width="5.27" height="2.46" style="fill:#fff"></rect><rect x="139.87" y="282.68" width="5.27" height="2.46" style="fill:#fff"></rect><rect x="139.87" y="287.45" width="5.27" height="2.46" style="fill:#fff"></rect><rect x="139.87" y="292.22" width="5.27" height="2.46" style="fill:#fff"></rect><rect x="139.87" y="296.99" width="5.27" height="2.46" style="fill:#fff"></rect><rect x="139.87" y="301.76" width="5.27" height="2.46" style="fill:#fff"></rect><rect x="98.18" y="237.23" width="5.49" height="3.88" style="fill:#fff"></rect><rect x="106.36" y="237.23" width="5.49" height="3.88" style="fill:#fff"></rect><rect x="98.18" y="242.92" width="5.49" height="3.88" style="fill:#fff"></rect><rect x="106.36" y="242.92" width="5.49" height="3.88" style="fill:#fff"></rect><rect x="98.18" y="248.61" width="5.49" height="3.88" style="fill:#fff"></rect><rect x="106.36" y="248.61" width="5.49" height="3.88" style="fill:#fff"></rect><rect x="98.18" y="254.31" width="5.49" height="3.88" style="fill:#fff"></rect><rect x="106.36" y="254.31" width="5.49" height="3.88" style="fill:#fff"></rect><rect x="98.18" y="260" width="5.49" height="3.88" style="fill:#fff"></rect><rect x="106.36" y="260" width="5.49" height="3.88" style="fill:#fff"></rect><rect x="116.51" y="262.07" width="5.49" height="3.88" style="fill:#fff"></rect><rect x="116.51" y="267.76" width="5.49" height="3.88" style="fill:#fff"></rect><rect x="116.51" y="273.46" width="5.49" height="3.88" style="fill:#fff"></rect><rect x="116.51" y="279.15" width="5.49" height="3.88" style="fill:#fff"></rect><rect x="116.51" y="284.84" width="5.49" height="3.88" style="fill:#fff"></rect><rect x="116.51" y="290.54" width="5.49" height="3.88" style="fill:#fff"></rect><rect x="98.18" y="265.63" width="5.49" height="3.88" style="fill:#fff"></rect><rect x="106.36" y="265.63" width="5.49" height="3.88" style="fill:#fff"></rect><rect x="116.51" y="296.16" width="5.49" height="3.88" style="fill:#fff"></rect><rect x="98.18" y="271.25" width="5.49" height="3.88" style="fill:#fff"></rect><rect x="106.36" y="271.25" width="5.49" height="3.88" style="fill:#fff"></rect><rect x="116.51" y="301.79" width="5.49" height="3.88" style="fill:#fff"></rect><rect x="98.18" y="276.88" width="5.49" height="3.88" style="fill:#fff"></rect><rect x="106.36" y="276.88" width="5.49" height="3.88" style="fill:#fff"></rect><rect x="116.51" y="307.42" width="5.49" height="3.88" style="fill:#fff"></rect><rect x="98.18" y="282.51" width="5.49" height="3.88" style="fill:#fff"></rect><rect x="106.36" y="282.51" width="5.49" height="3.88" style="fill:#fff"></rect><rect x="98.18" y="288.13" width="5.49" height="3.88" style="fill:#fff"></rect><rect x="106.36" y="288.13" width="5.49" height="3.88" style="fill:#fff"></rect><rect x="168.65" y="256.21" width="2.97" height="3.4" style="fill:#fff"></rect><rect x="173.79" y="256.21" width="2.97" height="3.4" style="fill:#fff"></rect><rect x="168.65" y="261.32" width="2.97" height="3.4" style="fill:#fff"></rect><rect x="173.79" y="261.32" width="2.97" height="3.4" style="fill:#fff"></rect><rect x="168.65" y="266.43" width="2.97" height="3.4" style="fill:#fff"></rect><rect x="173.79" y="266.43" width="2.97" height="3.4" style="fill:#fff"></rect><rect x="168.65" y="271.54" width="2.97" height="3.4" style="fill:#fff"></rect><rect x="173.79" y="271.54" width="2.97" height="3.4" style="fill:#fff"></rect><rect x="168.65" y="276.77" width="2.97" height="3.4" style="fill:#fff"></rect><rect x="173.79" y="276.77" width="2.97" height="3.4" style="fill:#fff"></rect><rect x="168.65" y="282.01" width="2.97" height="3.4" style="fill:#fff"></rect><rect x="173.79" y="282.01" width="2.97" height="3.4" style="fill:#fff"></rect><rect x="168.65" y="287.24" width="2.97" height="3.4" style="fill:#fff"></rect><rect x="173.79" y="287.24" width="2.97" height="3.4" style="fill:#fff"></rect><rect x="168.65" y="292.48" width="2.97" height="3.4" style="fill:#fff"></rect><rect x="173.79" y="292.48" width="2.97" height="3.4" style="fill:#fff"></rect><rect x="168.65" y="297.77" width="2.97" height="3.4" style="fill:#fff"></rect><rect x="173.79" y="297.77" width="2.97" height="3.4" style="fill:#fff"></rect><rect x="168.65" y="303.06" width="2.97" height="3.4" style="fill:#fff"></rect><rect x="173.79" y="303.06" width="2.97" height="3.4" style="fill:#fff"></rect><rect x="168.65" y="308.35" width="2.97" height="3.4" style="fill:#fff"></rect><rect x="173.79" y="308.35" width="2.97" height="3.4" style="fill:#fff"></rect><rect x="241.07" y="226.23" width="2.97" height="4" style="fill:#fff"></rect><rect x="246.21" y="226.23" width="2.97" height="4" style="fill:#fff"></rect><rect x="241.07" y="232.25" width="2.97" height="4" style="fill:#fff"></rect><rect x="246.21" y="232.25" width="2.97" height="4" style="fill:#fff"></rect><rect x="241.07" y="238.26" width="2.97" height="4" style="fill:#fff"></rect><rect x="246.21" y="238.26" width="2.97" height="4" style="fill:#fff"></rect><rect x="241.07" y="244.28" width="2.97" height="4" style="fill:#fff"></rect><rect x="246.21" y="244.28" width="2.97" height="4" style="fill:#fff"></rect><rect x="241.07" y="250.45" width="2.97" height="4" style="fill:#fff"></rect><rect x="246.21" y="250.45" width="2.97" height="4" style="fill:#fff"></rect><rect x="241.07" y="256.62" width="2.97" height="4" style="fill:#fff"></rect><rect x="246.21" y="256.62" width="2.97" height="4" style="fill:#fff"></rect><rect x="241.07" y="262.78" width="2.97" height="4" style="fill:#fff"></rect><rect x="246.21" y="262.78" width="2.97" height="4" style="fill:#fff"></rect><rect x="241.07" y="268.95" width="2.97" height="4" style="fill:#fff"></rect><rect x="246.21" y="268.95" width="2.97" height="4" style="fill:#fff"></rect><rect x="241.07" y="275.18" width="2.97" height="4" style="fill:#fff"></rect><rect x="246.21" y="275.18" width="2.97" height="4" style="fill:#fff"></rect><rect x="241.07" y="281.42" width="2.97" height="4" style="fill:#fff"></rect><rect x="246.21" y="281.42" width="2.97" height="4" style="fill:#fff"></rect><rect x="241.07" y="287.65" width="2.97" height="4" style="fill:#fff"></rect><rect x="246.21" y="287.65" width="2.97" height="4" style="fill:#fff"></rect><rect x="241.07" y="293.88" width="2.97" height="4" style="fill:#fff"></rect><rect x="246.21" y="293.88" width="2.97" height="4" style="fill:#fff"></rect><rect x="179.64" y="256.21" width="2.97" height="3.4" style="fill:#fff"></rect><rect x="184.78" y="256.21" width="2.97" height="3.4" style="fill:#fff"></rect><rect x="179.64" y="250.97" width="2.97" height="3.39" style="fill:#fff"></rect><rect x="184.78" y="250.97" width="2.97" height="3.39" style="fill:#fff"></rect><rect x="179.64" y="245.74" width="2.97" height="3.4" style="fill:#fff"></rect><rect x="184.78" y="245.74" width="2.97" height="3.4" style="fill:#fff"></rect><rect x="179.64" y="261.32" width="2.97" height="3.4" style="fill:#fff"></rect><rect x="184.78" y="261.32" width="2.97" height="3.4" style="fill:#fff"></rect><rect x="179.64" y="266.43" width="2.97" height="3.4" style="fill:#fff"></rect><rect x="184.78" y="266.43" width="2.97" height="3.4" style="fill:#fff"></rect><rect x="179.64" y="271.54" width="2.97" height="3.4" style="fill:#fff"></rect><rect x="184.78" y="271.54" width="2.97" height="3.4" style="fill:#fff"></rect><rect x="179.64" y="276.77" width="2.97" height="3.4" style="fill:#fff"></rect><rect x="184.78" y="276.77" width="2.97" height="3.4" style="fill:#fff"></rect><rect x="179.64" y="282.01" width="2.97" height="3.4" style="fill:#fff"></rect><rect x="184.78" y="282.01" width="2.97" height="3.4" style="fill:#fff"></rect><rect x="179.64" y="287.24" width="2.97" height="3.4" style="fill:#fff"></rect><rect x="184.78" y="287.24" width="2.97" height="3.4" style="fill:#fff"></rect><rect x="179.64" y="292.48" width="2.97" height="3.4" style="fill:#fff"></rect><rect x="184.78" y="292.48" width="2.97" height="3.4" style="fill:#fff"></rect><rect x="179.64" y="297.77" width="2.97" height="3.4" style="fill:#fff"></rect><rect x="184.78" y="297.77" width="2.97" height="3.4" style="fill:#fff"></rect><rect x="179.64" y="303.06" width="2.97" height="3.4" style="fill:#fff"></rect><rect x="184.78" y="303.06" width="2.97" height="3.4" style="fill:#fff"></rect><rect x="179.64" y="308.35" width="2.97" height="3.4" style="fill:#fff"></rect><rect x="184.78" y="308.35" width="2.97" height="3.4" style="fill:#fff"></rect><polygon points="452.04 224.43 452.04 351.06 250 351.06 250 264.56 267.53 264.56 267.53 285.85 272.04 285.85 272.04 273.8 294.33 273.8 294.33 292.88 297.28 292.88 297.28 217.57 316.65 217.57 316.65 260.39 326.58 260.39 326.58 275.69 329.59 275.69 329.59 266.07 347.2 266.07 347.2 294.77 352.35 294.77 352.35 271.44 368.45 271.44 368.45 253.71 379.4 253.71 379.4 243.62 392.07 243.62 392.07 288.39 396.33 288.39 396.33 239.17 417.2 239.17 417.2 265.91 420.08 265.91 420.08 244.08 441.25 244.08 441.25 224.43 452.04 224.43" style="fill:#ebebeb"></polygon><rect x="252.15" y="267.24" width="2.97" height="4.07" style="fill:#fff"></rect><rect x="257.29" y="267.24" width="2.97" height="4.07" style="fill:#fff"></rect><rect x="262.43" y="267.24" width="2.97" height="4.07" style="fill:#fff"></rect><rect x="252.15" y="273.36" width="2.97" height="4.07" style="fill:#fff"></rect><rect x="257.29" y="273.36" width="2.97" height="4.07" style="fill:#fff"></rect><rect x="262.43" y="273.36" width="2.97" height="4.07" style="fill:#fff"></rect><rect x="252.15" y="279.49" width="2.97" height="4.07" style="fill:#fff"></rect><rect x="257.29" y="279.49" width="2.97" height="4.07" style="fill:#fff"></rect><rect x="262.43" y="279.49" width="2.97" height="4.07" style="fill:#fff"></rect><rect x="252.15" y="285.61" width="2.97" height="4.07" style="fill:#fff"></rect><rect x="257.29" y="285.61" width="2.97" height="4.07" style="fill:#fff"></rect><rect x="262.43" y="285.61" width="2.97" height="4.07" style="fill:#fff"></rect><rect x="354.82" y="274.34" width="2.97" height="3.4" style="fill:#fff"></rect><rect x="359.96" y="274.34" width="2.97" height="3.4" style="fill:#fff"></rect><rect x="365.1" y="274.34" width="2.97" height="3.4" style="fill:#fff"></rect><rect x="354.82" y="279.45" width="2.97" height="3.39" style="fill:#fff"></rect><rect x="359.96" y="279.45" width="2.97" height="3.39" style="fill:#fff"></rect><rect x="365.1" y="279.45" width="2.97" height="3.39" style="fill:#fff"></rect><rect x="354.82" y="284.56" width="2.97" height="3.39" style="fill:#fff"></rect><rect x="359.96" y="284.56" width="2.97" height="3.39" style="fill:#fff"></rect><rect x="365.1" y="284.56" width="2.97" height="3.39" style="fill:#fff"></rect><rect x="354.82" y="289.67" width="2.97" height="3.4" style="fill:#fff"></rect><rect x="359.96" y="289.67" width="2.97" height="3.4" style="fill:#fff"></rect><rect x="365.1" y="289.67" width="2.97" height="3.4" style="fill:#fff"></rect><rect x="354.82" y="294.9" width="2.97" height="3.4" style="fill:#fff"></rect><rect x="359.96" y="294.9" width="2.97" height="3.4" style="fill:#fff"></rect><rect x="365.1" y="294.9" width="2.97" height="3.4" style="fill:#fff"></rect><rect x="354.82" y="300.14" width="2.97" height="3.4" style="fill:#fff"></rect><rect x="359.96" y="300.14" width="2.97" height="3.4" style="fill:#fff"></rect><rect x="365.1" y="300.14" width="2.97" height="3.4" style="fill:#fff"></rect><rect x="354.82" y="305.37" width="2.97" height="3.4" style="fill:#fff"></rect><rect x="359.96" y="305.37" width="2.97" height="3.4" style="fill:#fff"></rect><rect x="365.1" y="305.37" width="2.97" height="3.4" style="fill:#fff"></rect><rect x="354.82" y="310.61" width="2.97" height="3.4" style="fill:#fff"></rect><rect x="359.96" y="310.61" width="2.97" height="3.4" style="fill:#fff"></rect><rect x="365.1" y="310.61" width="2.97" height="3.4" style="fill:#fff"></rect><rect x="274.57" y="276.41" width="17.07" height="2.55" style="fill:#fff"></rect><rect x="274.57" y="281.35" width="17.07" height="2.55" style="fill:#fff"></rect><rect x="274.57" y="286.29" width="17.07" height="2.55" style="fill:#fff"></rect><rect x="274.57" y="291.23" width="17.07" height="2.55" style="fill:#fff"></rect><rect x="274.57" y="296.16" width="17.07" height="2.55" style="fill:#fff"></rect><rect x="274.57" y="301.1" width="17.07" height="2.55" style="fill:#fff"></rect><rect x="274.57" y="306.04" width="17.07" height="2.55" style="fill:#fff"></rect><rect x="274.57" y="310.98" width="17.07" height="2.55" style="fill:#fff"></rect><rect x="398.85" y="241.54" width="15.7" height="2.55" style="fill:#fff"></rect><rect x="398.85" y="246.48" width="15.7" height="2.55" style="fill:#fff"></rect><rect x="398.85" y="251.42" width="15.7" height="2.55" style="fill:#fff"></rect><rect x="398.85" y="256.36" width="15.7" height="2.55" style="fill:#fff"></rect><rect x="398.85" y="261.3" width="15.7" height="2.55" style="fill:#fff"></rect><rect x="398.85" y="266.24" width="15.7" height="2.55" style="fill:#fff"></rect><rect x="398.85" y="271.17" width="15.7" height="2.55" style="fill:#fff"></rect><rect x="398.85" y="276.11" width="15.7" height="2.55" style="fill:#fff"></rect><rect x="398.85" y="280.81" width="15.7" height="2.55" style="fill:#fff"></rect><rect x="398.85" y="285.5" width="15.7" height="2.55" style="fill:#fff"></rect><rect x="398.85" y="290.19" width="15.7" height="2.55" style="fill:#fff"></rect><rect x="398.85" y="294.88" width="15.7" height="2.55" style="fill:#fff"></rect><rect x="423.35" y="247.51" width="16.58" height="2.55" style="fill:#fff"></rect><rect x="423.35" y="252.45" width="16.58" height="2.55" style="fill:#fff"></rect><rect x="423.35" y="257.39" width="16.58" height="2.55" style="fill:#fff"></rect><rect x="423.35" y="262.32" width="16.58" height="2.55" style="fill:#fff"></rect><rect x="423.35" y="267.26" width="16.58" height="2.55" style="fill:#fff"></rect><rect x="423.35" y="272.2" width="16.58" height="2.55" style="fill:#fff"></rect><rect x="423.35" y="277.14" width="16.58" height="2.55" style="fill:#fff"></rect><rect x="423.35" y="282.08" width="16.58" height="2.55" style="fill:#fff"></rect><rect x="423.35" y="286.5" width="16.58" height="2.55" style="fill:#fff"></rect><rect x="423.35" y="290.92" width="16.58" height="2.55" style="fill:#fff"></rect><rect x="423.35" y="295.34" width="16.58" height="2.55" style="fill:#fff"></rect><rect x="334.74" y="268.37" width="5.27" height="2.46" style="fill:#fff"></rect><rect x="334.74" y="273.14" width="5.27" height="2.46" style="fill:#fff"></rect><rect x="334.74" y="277.91" width="5.27" height="2.46" style="fill:#fff"></rect><rect x="334.74" y="282.68" width="5.27" height="2.46" style="fill:#fff"></rect><rect x="334.74" y="287.45" width="5.27" height="2.46" style="fill:#fff"></rect><rect x="334.74" y="292.22" width="5.27" height="2.46" style="fill:#fff"></rect><rect x="334.74" y="296.99" width="5.27" height="2.46" style="fill:#fff"></rect><rect x="334.74" y="301.76" width="5.27" height="2.46" style="fill:#fff"></rect><rect x="341.91" y="268.37" width="5.27" height="2.46" style="fill:#fff"></rect><rect x="341.91" y="273.14" width="5.27" height="2.46" style="fill:#fff"></rect><rect x="341.91" y="277.91" width="5.27" height="2.46" style="fill:#fff"></rect><rect x="341.91" y="282.68" width="5.27" height="2.46" style="fill:#fff"></rect><rect x="341.91" y="287.45" width="5.27" height="2.46" style="fill:#fff"></rect><rect x="341.91" y="292.22" width="5.27" height="2.46" style="fill:#fff"></rect><rect x="341.91" y="296.99" width="5.27" height="2.46" style="fill:#fff"></rect><rect x="341.91" y="301.76" width="5.27" height="2.46" style="fill:#fff"></rect><rect x="300.21" y="220.14" width="5.49" height="3.88" style="fill:#fff"></rect><rect x="308.4" y="220.14" width="5.49" height="3.88" style="fill:#fff"></rect><rect x="300.21" y="225.84" width="5.49" height="3.88" style="fill:#fff"></rect><rect x="308.4" y="225.84" width="5.49" height="3.88" style="fill:#fff"></rect><rect x="300.21" y="231.53" width="5.49" height="3.88" style="fill:#fff"></rect><rect x="308.4" y="231.53" width="5.49" height="3.88" style="fill:#fff"></rect><rect x="300.21" y="237.23" width="5.49" height="3.88" style="fill:#fff"></rect><rect x="308.4" y="237.23" width="5.49" height="3.88" style="fill:#fff"></rect><rect x="300.21" y="242.92" width="5.49" height="3.88" style="fill:#fff"></rect><rect x="308.4" y="242.92" width="5.49" height="3.88" style="fill:#fff"></rect><rect x="300.21" y="248.61" width="5.49" height="3.88" style="fill:#fff"></rect><rect x="308.4" y="248.61" width="5.49" height="3.88" style="fill:#fff"></rect><rect x="300.21" y="254.31" width="5.49" height="3.88" style="fill:#fff"></rect><rect x="308.4" y="254.31" width="5.49" height="3.88" style="fill:#fff"></rect><rect x="300.21" y="260" width="5.49" height="3.88" style="fill:#fff"></rect><rect x="308.4" y="260" width="5.49" height="3.88" style="fill:#fff"></rect><rect x="318.55" y="262.07" width="5.49" height="3.88" style="fill:#fff"></rect><rect x="318.55" y="267.76" width="5.49" height="3.88" style="fill:#fff"></rect><rect x="318.55" y="273.46" width="5.49" height="3.88" style="fill:#fff"></rect><rect x="318.55" y="279.15" width="5.49" height="3.88" style="fill:#fff"></rect><rect x="318.55" y="284.84" width="5.49" height="3.88" style="fill:#fff"></rect><rect x="318.55" y="290.54" width="5.49" height="3.88" style="fill:#fff"></rect><rect x="300.21" y="265.63" width="5.49" height="3.88" style="fill:#fff"></rect><rect x="308.4" y="265.63" width="5.49" height="3.88" style="fill:#fff"></rect><rect x="318.55" y="296.16" width="5.49" height="3.88" style="fill:#fff"></rect><rect x="300.21" y="271.25" width="5.49" height="3.88" style="fill:#fff"></rect><rect x="308.4" y="271.25" width="5.49" height="3.88" style="fill:#fff"></rect><rect x="318.55" y="301.79" width="5.49" height="3.88" style="fill:#fff"></rect><rect x="300.21" y="276.88" width="5.49" height="3.88" style="fill:#fff"></rect><rect x="308.4" y="276.88" width="5.49" height="3.88" style="fill:#fff"></rect><rect x="318.55" y="307.42" width="5.49" height="3.88" style="fill:#fff"></rect><rect x="300.21" y="282.51" width="5.49" height="3.88" style="fill:#fff"></rect><rect x="308.4" y="282.51" width="5.49" height="3.88" style="fill:#fff"></rect><rect x="300.21" y="288.13" width="5.49" height="3.88" style="fill:#fff"></rect><rect x="308.4" y="288.13" width="5.49" height="3.88" style="fill:#fff"></rect><rect x="370.69" y="256.21" width="2.97" height="3.4" style="fill:#fff"></rect><rect x="375.83" y="256.21" width="2.97" height="3.4" style="fill:#fff"></rect><rect x="370.69" y="261.32" width="2.97" height="3.4" style="fill:#fff"></rect><rect x="375.83" y="261.32" width="2.97" height="3.4" style="fill:#fff"></rect><rect x="370.69" y="266.43" width="2.97" height="3.4" style="fill:#fff"></rect><rect x="375.83" y="266.43" width="2.97" height="3.4" style="fill:#fff"></rect><rect x="370.69" y="271.54" width="2.97" height="3.4" style="fill:#fff"></rect><rect x="375.83" y="271.54" width="2.97" height="3.4" style="fill:#fff"></rect><rect x="370.69" y="276.77" width="2.97" height="3.4" style="fill:#fff"></rect><rect x="375.83" y="276.77" width="2.97" height="3.4" style="fill:#fff"></rect><rect x="370.69" y="282.01" width="2.97" height="3.4" style="fill:#fff"></rect><rect x="375.83" y="282.01" width="2.97" height="3.4" style="fill:#fff"></rect><rect x="370.69" y="287.24" width="2.97" height="3.4" style="fill:#fff"></rect><rect x="375.83" y="287.24" width="2.97" height="3.4" style="fill:#fff"></rect><rect x="370.69" y="292.48" width="2.97" height="3.4" style="fill:#fff"></rect><rect x="375.83" y="292.48" width="2.97" height="3.4" style="fill:#fff"></rect><rect x="370.69" y="297.77" width="2.97" height="3.4" style="fill:#fff"></rect><rect x="375.83" y="297.77" width="2.97" height="3.4" style="fill:#fff"></rect><rect x="370.69" y="303.06" width="2.97" height="3.4" style="fill:#fff"></rect><rect x="375.83" y="303.06" width="2.97" height="3.4" style="fill:#fff"></rect><rect x="370.69" y="308.35" width="2.97" height="3.4" style="fill:#fff"></rect><rect x="375.83" y="308.35" width="2.97" height="3.4" style="fill:#fff"></rect><rect x="443.11" y="226.23" width="2.97" height="4" style="fill:#fff"></rect><rect x="448.25" y="226.23" width="2.97" height="4" style="fill:#fff"></rect><rect x="443.11" y="232.25" width="2.97" height="4" style="fill:#fff"></rect><rect x="448.25" y="232.25" width="2.97" height="4" style="fill:#fff"></rect><rect x="443.11" y="238.26" width="2.97" height="4" style="fill:#fff"></rect><rect x="448.25" y="238.26" width="2.97" height="4" style="fill:#fff"></rect><rect x="443.11" y="244.28" width="2.97" height="4" style="fill:#fff"></rect><rect x="448.25" y="244.28" width="2.97" height="4" style="fill:#fff"></rect><rect x="443.11" y="250.45" width="2.97" height="4" style="fill:#fff"></rect><rect x="448.25" y="250.45" width="2.97" height="4" style="fill:#fff"></rect><rect x="443.11" y="256.62" width="2.97" height="4" style="fill:#fff"></rect><rect x="448.25" y="256.62" width="2.97" height="4" style="fill:#fff"></rect><rect x="443.11" y="262.78" width="2.97" height="4" style="fill:#fff"></rect><rect x="448.25" y="262.78" width="2.97" height="4" style="fill:#fff"></rect><rect x="443.11" y="268.95" width="2.97" height="4" style="fill:#fff"></rect><rect x="448.25" y="268.95" width="2.97" height="4" style="fill:#fff"></rect><rect x="443.11" y="275.18" width="2.97" height="4" style="fill:#fff"></rect><rect x="448.25" y="275.18" width="2.97" height="4" style="fill:#fff"></rect><rect x="443.11" y="281.42" width="2.97" height="4" style="fill:#fff"></rect><rect x="448.25" y="281.42" width="2.97" height="4" style="fill:#fff"></rect><rect x="443.11" y="287.65" width="2.97" height="4" style="fill:#fff"></rect><rect x="448.25" y="287.65" width="2.97" height="4" style="fill:#fff"></rect><rect x="443.11" y="293.88" width="2.97" height="4" style="fill:#fff"></rect><rect x="448.25" y="293.88" width="2.97" height="4" style="fill:#fff"></rect><rect x="381.68" y="256.21" width="2.97" height="3.4" style="fill:#fff"></rect><rect x="386.82" y="256.21" width="2.97" height="3.4" style="fill:#fff"></rect><rect x="381.68" y="250.97" width="2.97" height="3.39" style="fill:#fff"></rect><rect x="386.82" y="250.97" width="2.97" height="3.39" style="fill:#fff"></rect><rect x="381.68" y="245.74" width="2.97" height="3.4" style="fill:#fff"></rect><rect x="386.82" y="245.74" width="2.97" height="3.4" style="fill:#fff"></rect><rect x="381.68" y="261.32" width="2.97" height="3.4" style="fill:#fff"></rect><rect x="386.82" y="261.32" width="2.97" height="3.4" style="fill:#fff"></rect><rect x="381.68" y="266.43" width="2.97" height="3.4" style="fill:#fff"></rect><rect x="386.82" y="266.43" width="2.97" height="3.4" style="fill:#fff"></rect><rect x="381.68" y="271.54" width="2.97" height="3.4" style="fill:#fff"></rect><rect x="386.82" y="271.54" width="2.97" height="3.4" style="fill:#fff"></rect><rect x="381.68" y="276.77" width="2.97" height="3.4" style="fill:#fff"></rect><rect x="386.82" y="276.77" width="2.97" height="3.4" style="fill:#fff"></rect><rect x="381.68" y="282.01" width="2.97" height="3.4" style="fill:#fff"></rect><rect x="386.82" y="282.01" width="2.97" height="3.4" style="fill:#fff"></rect><rect x="381.68" y="287.24" width="2.97" height="3.4" style="fill:#fff"></rect><rect x="386.82" y="287.24" width="2.97" height="3.4" style="fill:#fff"></rect><rect x="381.68" y="292.48" width="2.97" height="3.4" style="fill:#fff"></rect><rect x="386.82" y="292.48" width="2.97" height="3.4" style="fill:#fff"></rect><rect x="381.68" y="297.77" width="2.97" height="3.4" style="fill:#fff"></rect><rect x="386.82" y="297.77" width="2.97" height="3.4" style="fill:#fff"></rect><rect x="381.68" y="303.06" width="2.97" height="3.4" style="fill:#fff"></rect><rect x="386.82" y="303.06" width="2.97" height="3.4" style="fill:#fff"></rect><rect x="381.68" y="308.35" width="2.97" height="3.4" style="fill:#fff"></rect><rect x="386.82" y="308.35" width="2.97" height="3.4" style="fill:#fff"></rect><path d="M251.13,350.69c-4.07.14-8.12.47-12.17.84s-8.07.83-12.08,1.37-8,1.15-12,1.91a80.55,80.55,0,0,0-11.58,3,21.3,21.3,0,0,0-2.67,1.16,8.59,8.59,0,0,0-2.29,1.59,2.35,2.35,0,0,0-.72,2.3,4.3,4.3,0,0,0,1.68,2,22.87,22.87,0,0,0,5.15,2.54c1.84.69,3.74,1.27,5.65,1.81,7.67,2.14,15.66,3.43,23.43,5.23s15.53,3.68,23,6a109,109,0,0,1,10.93,4,40.08,40.08,0,0,1,5,2.57,10.42,10.42,0,0,1,3.7,3.42,2.74,2.74,0,0,1,.27,2.08,4.12,4.12,0,0,1-1.35,1.87,16.74,16.74,0,0,1-4.84,2.56,73,73,0,0,1-11.44,3Q247,402,235,403.65c-32,4.54-64.28,8-96.24,12.89-8,1.27-15.94,2.59-23.76,4.34l-2.91.72c-1,.25-2,.45-2.89.76l-5.68,1.71c-1.91.53-3.72,1.25-5.57,1.89s-3.71,1.29-5.46,2.08a83.61,83.61,0,0,0-19.63,10.87l-2.1,1.67c-.67.57-1.28,1.19-1.93,1.78l-1,.89-.86.95a24.94,24.94,0,0,0-1.67,1.92c-.49.67-1.05,1.32-1.48,2a23.76,23.76,0,0,0-1.27,2.09L62,451.29c-.17.36-.31.73-.46,1.09a10.63,10.63,0,0,0-.66,2.24,11,11,0,0,1,.68-2.23c.16-.37.31-.73.48-1.09l.56-1.07c.35-.72.87-1.38,1.29-2.07s1-1.33,1.51-2a25,25,0,0,1,1.68-1.91l.87-.94,1-.88c.65-.59,1.27-1.2,2-1.76L73,439a83.59,83.59,0,0,1,19.69-10.69c1.75-.78,3.6-1.4,5.44-2.06s3.65-1.35,5.56-1.87l5.67-1.69c.93-.31,1.92-.51,2.88-.75l2.89-.71c7.8-1.73,15.77-3,23.74-4.28,31.94-4.78,64.23-8.19,96.28-12.66q12-1.67,23.93-3.79a74.6,74.6,0,0,0,11.6-3,17.61,17.61,0,0,0,5.07-2.71,4.52,4.52,0,0,0,1.5-2.13,3.1,3.1,0,0,0-.31-2.41A11,11,0,0,0,273,386.6,40.46,40.46,0,0,0,267.9,384a105.5,105.5,0,0,0-11-4c-7.55-2.33-15.31-4.24-23.13-6s-15.79-3.07-23.42-5.17c-1.9-.54-3.78-1.11-5.6-1.78a22.4,22.4,0,0,1-5-2.46,4,4,0,0,1-1.56-1.82,2,2,0,0,1,.63-2,8.13,8.13,0,0,1,2.17-1.51,23.63,23.63,0,0,1,2.61-1.14,78.69,78.69,0,0,1,11.46-3c3.93-.78,7.92-1.42,11.92-2s8-1,12.06-1.45S247.06,350.85,251.13,350.69Z" style="fill:#ebebeb"></path><path d="M206.15,350.69c-7.68.29-15.34.89-23,1.54s-15.26,1.48-22.84,2.49c-3.78.5-7.56,1.08-11.3,1.75A113.18,113.18,0,0,0,138,358.93a33.61,33.61,0,0,0-5.24,1.89,9.47,9.47,0,0,0-2.24,1.45,2.11,2.11,0,0,0-.76,2.19,4.08,4.08,0,0,0,1.68,1.87,15.63,15.63,0,0,0,2.39,1.28,44.85,44.85,0,0,0,5.26,1.85c3.6,1.05,7.3,1.87,11,2.62l11.15,2.22,22.29,4.43c7.43,1.5,14.84,3,22.18,4.71,3.67.84,7.33,1.73,10.92,2.72,1.8.5,3.58,1,5.32,1.62a30.47,30.47,0,0,1,4.94,2.06,4,4,0,0,1,1.68,1.46c.26.53-.22,1.06-1,1.45a20.73,20.73,0,0,1-5.16,1.56c-3.68.74-7.49,1.14-11.29,1.56-7.6.79-15.24,1.39-22.89,1.93-15.31,1.08-30.64,2-45.93,3.28s-30.54,2.86-45.6,5.27-29.9,5.7-43.81,10.65c14-4.85,28.88-8,43.91-10.32s30.29-3.91,45.57-5.14,30.61-2.11,45.93-3.15c7.66-.53,15.31-1.11,22.94-1.88,3.81-.42,7.64-.8,11.4-1.55a21,21,0,0,0,5.47-1.67,3.41,3.41,0,0,0,1.11-.89,1.28,1.28,0,0,0,.17-1.3,4.63,4.63,0,0,0-2-1.79,31.63,31.63,0,0,0-5.13-2.12c-1.77-.6-3.57-1.12-5.38-1.62-3.62-1-7.29-1.87-11-2.71-7.37-1.68-14.8-3.18-22.23-4.67l-22.32-4.37-11.15-2.19c-3.71-.74-7.39-1.55-11-2.58a42.75,42.75,0,0,1-5.18-1.81,14.32,14.32,0,0,1-2.3-1.22,3.71,3.71,0,0,1-1.52-1.65,1.77,1.77,0,0,1,.65-1.85,9,9,0,0,1,2.1-1.36,33.18,33.18,0,0,1,5.13-1.87c3.57-1,7.28-1.79,11-2.48s7.49-1.25,11.27-1.78c7.55-1.06,15.16-1.91,22.78-2.64S198.47,351,206.15,350.69Z" style="fill:#ebebeb"></path><path d="M139.91,350.69c-6.53.23-13,.71-19.56,1.23s-13,1.15-19.46,1.91S88,355.49,81.61,356.66c-3.18.59-6.34,1.25-9.43,2.11a42,42,0,0,0-4.52,1.5,9.75,9.75,0,0,0-3.84,2.43,1.88,1.88,0,0,0-.3,2A4.14,4.14,0,0,0,65,366.25a19.32,19.32,0,0,0,4.18,2.05,80.48,80.48,0,0,0,9.21,2.64c3.13.74,6.3,1.35,9.47,2s6.34,1.21,9.52,1.79c12.73,2.3,25.53,4.38,38.33,6.4,6.4,1,12.8,2,19.19,3.09,3.19.53,6.37,1.08,9.54,1.68s6.33,1.22,9.38,2.05c.75.22,1.5.44,2.21.71a8.23,8.23,0,0,1,1,.46c.29.16.55.38.55.53s-.21.32-.53.45a6.16,6.16,0,0,1-1.05.36c-.75.19-1.54.33-2.33.46-3.17.48-6.43.71-9.68.95l-19.53,1.49c-13,1-26,2.3-38.86,4.23Q96,399,86.49,401t-18.66,4.57q9.26-2.46,18.72-4.41t19.11-3.29c12.84-1.86,25.83-3.1,38.84-4.1L164,392.34c3.25-.24,6.53-.45,9.77-.94.81-.13,1.61-.26,2.41-.47a7.57,7.57,0,0,0,1.19-.4,2.29,2.29,0,0,0,.56-.33.81.81,0,0,0,.32-.61c-.08-.49-.5-.72-.83-.93a8.46,8.46,0,0,0-1.1-.51,22.64,22.64,0,0,0-2.29-.74c-3.1-.86-6.27-1.49-9.44-2.11s-6.36-1.17-9.55-1.71c-6.39-1.09-12.79-2.11-19.19-3.14-12.79-2.05-25.6-4-38.32-6.32-3.18-.57-6.36-1.15-9.53-1.76s-6.33-1.21-9.45-1.93a80.42,80.42,0,0,1-9.11-2.59,18.91,18.91,0,0,1-4-2,3.74,3.74,0,0,1-1.31-1.39,1.51,1.51,0,0,1,.24-1.58A9.21,9.21,0,0,1,68,360.67a41.11,41.11,0,0,1,4.43-1.49c3.05-.86,6.2-1.52,9.36-2.12,6.34-1.19,12.77-2.1,19.22-2.89s12.93-1.48,19.42-2.07S133.38,351,139.91,350.69Z" style="fill:#ebebeb"></path><path d="M271.42,350.69c-3.9.13-7.79.44-11.66.8s-7.74.78-11.59,1.28-7.68,1.08-11.48,1.78a96.36,96.36,0,0,0-11.19,2.63,26,26,0,0,0-5.17,2.13,6.22,6.22,0,0,0-2,1.67,2.05,2.05,0,0,0-.19,2.26,5.49,5.49,0,0,0,1.81,1.81,16.61,16.61,0,0,0,2.39,1.31,43.64,43.64,0,0,0,5.27,2c7.24,2.27,14.88,3.64,22.41,5.17,15.07,3.05,30.17,6.08,45,9.63a218.86,218.86,0,0,1,21.86,6.19,49.74,49.74,0,0,1,5.06,2.11,18.44,18.44,0,0,1,2.27,1.31,5.41,5.41,0,0,1,1.66,1.64,1.48,1.48,0,0,1-.22,1.82,6,6,0,0,1-2,1.38,29,29,0,0,1-5.27,1.7c-30.25,5.61-60.86,10.55-90.92,17-7.51,1.62-15,3.33-22.36,5.3a156,156,0,0,0-21.38,7.2,81.61,81.61,0,0,0-18.57,10.68,43,43,0,0,0-7.06,7,20.41,20.41,0,0,0-4.14,8.18,20.42,20.42,0,0,1,4.25-8.13,43.06,43.06,0,0,1,7.13-6.93A83.76,83.76,0,0,1,184,429.06,155.23,155.23,0,0,1,205.3,422c7.36-1.95,14.84-3.64,22.35-5.23,15-3.17,30.2-5.94,45.4-8.65l22.81-4,11.4-2,5.7-1c1.9-.33,3.81-.69,5.68-1.15a29.7,29.7,0,0,0,5.45-1.78,6.76,6.76,0,0,0,2.27-1.56,2.25,2.25,0,0,0,.54-1.17,2,2,0,0,0-.27-1.21,6.05,6.05,0,0,0-1.86-1.84A19,19,0,0,0,322.4,391a49.27,49.27,0,0,0-5.17-2.15,224,224,0,0,0-22-6.17c-14.91-3.52-30-6.52-45.11-9.54-7.54-1.52-15.16-2.86-22.36-5.1a47.4,47.4,0,0,1-5.21-1.94,15.8,15.8,0,0,1-2.33-1.28,5.09,5.09,0,0,1-1.69-1.67,1.8,1.8,0,0,1,.16-2,6,6,0,0,1,1.87-1.57,26.2,26.2,0,0,1,5-2.12,96.39,96.39,0,0,1,11.12-2.68c3.78-.72,7.6-1.32,11.44-1.85s7.7-1,11.57-1.35S267.52,350.84,271.42,350.69Z" style="fill:#ebebeb"></path><path d="M373.93,350.69c-4.07.14-8.12.47-12.16.84s-8.08.83-12.09,1.37-8,1.15-12,1.91a80.42,80.42,0,0,0-11.57,3,21.44,21.44,0,0,0-2.68,1.16,8.59,8.59,0,0,0-2.29,1.59,2.34,2.34,0,0,0-.71,2.3,4.3,4.3,0,0,0,1.68,2,22.66,22.66,0,0,0,5.15,2.54c1.84.69,3.73,1.27,5.64,1.81,7.67,2.14,15.66,3.43,23.44,5.23s15.53,3.68,23,6a108.13,108.13,0,0,1,10.93,4,40.22,40.22,0,0,1,5,2.57,10.47,10.47,0,0,1,3.69,3.42,2.69,2.69,0,0,1,.27,2.08,4.09,4.09,0,0,1-1.34,1.87A17,17,0,0,1,393.1,397a73.07,73.07,0,0,1-11.45,3c-7.91,1.4-15.89,2.64-23.89,3.73-32,4.54-64.29,8-96.24,12.89-8,1.27-15.94,2.59-23.76,4.34l-2.92.72c-1,.25-2,.45-2.88.76l-5.68,1.71c-1.92.53-3.73,1.25-5.58,1.89s-3.7,1.29-5.45,2.08a83.41,83.41,0,0,0-19.63,10.87l-2.1,1.67c-.67.57-1.29,1.19-1.94,1.78l-1,.89-.86.95a22.94,22.94,0,0,0-1.67,1.92c-.5.67-1,1.32-1.49,2s-.92,1.36-1.26,2.09l-.56,1.07c-.16.36-.3.73-.46,1.09a12,12,0,0,0-.66,2.24,11.74,11.74,0,0,1,.69-2.23c.16-.37.3-.73.47-1.09l.57-1.07a23.69,23.69,0,0,1,1.29-2.07c.44-.69,1-1.33,1.5-2a25.1,25.1,0,0,1,1.69-1.91l.87-.94,1-.88c.65-.59,1.27-1.2,1.94-1.76l2.12-1.65a83.32,83.32,0,0,1,19.68-10.69c1.75-.78,3.61-1.4,5.45-2.06s3.64-1.35,5.56-1.87l5.66-1.69c.94-.31,1.92-.51,2.88-.75l2.9-.71c7.8-1.73,15.76-3,23.73-4.28,31.95-4.78,64.23-8.19,96.28-12.66q12-1.67,23.94-3.79a74.48,74.48,0,0,0,11.59-3,17.48,17.48,0,0,0,5.07-2.71,4.61,4.61,0,0,0,1.51-2.13,3.14,3.14,0,0,0-.32-2.41,11,11,0,0,0-3.92-3.63,41.16,41.16,0,0,0-5.08-2.61,106.51,106.51,0,0,0-11-4c-7.55-2.33-15.31-4.24-23.12-6s-15.8-3.07-23.42-5.17c-1.91-.54-3.79-1.11-5.61-1.78a22.4,22.4,0,0,1-5-2.46,3.92,3.92,0,0,1-1.55-1.82,2.06,2.06,0,0,1,.62-2,8.3,8.3,0,0,1,2.17-1.51,23.63,23.63,0,0,1,2.61-1.14,79.16,79.16,0,0,1,11.47-3c3.93-.78,7.91-1.42,11.91-2s8-1,12.06-1.45S369.87,350.85,373.93,350.69Z" style="fill:#ebebeb"></path><path d="M391.6,350.69c-3.9.13-7.79.44-11.66.8s-7.75.78-11.59,1.28-7.69,1.08-11.48,1.78a96.52,96.52,0,0,0-11.2,2.63,26.25,26.25,0,0,0-5.17,2.13,6.22,6.22,0,0,0-2,1.67,2.05,2.05,0,0,0-.18,2.26,5.55,5.55,0,0,0,1.8,1.81,17.28,17.28,0,0,0,2.4,1.31,44.13,44.13,0,0,0,5.26,2c7.25,2.27,14.89,3.64,22.41,5.17,15.08,3.05,30.17,6.08,45.05,9.63a217.91,217.91,0,0,1,21.85,6.19,49.92,49.92,0,0,1,5.07,2.11,19.22,19.22,0,0,1,2.27,1.31,5.26,5.26,0,0,1,1.65,1.64,1.47,1.47,0,0,1-.21,1.82,6.11,6.11,0,0,1-2,1.38,29,29,0,0,1-5.27,1.7c-30.25,5.61-60.87,10.55-90.92,17-7.51,1.62-15,3.33-22.36,5.3a156.64,156.64,0,0,0-21.39,7.2,81.54,81.54,0,0,0-18.56,10.68,42.6,42.6,0,0,0-7.06,7,20.41,20.41,0,0,0-4.14,8.18,20.42,20.42,0,0,1,4.25-8.13,43.06,43.06,0,0,1,7.13-6.93,83.76,83.76,0,0,1,18.62-10.5A154.78,154.78,0,0,1,325.48,422c7.36-1.95,14.83-3.64,22.34-5.23,15-3.17,30.21-5.94,45.4-8.65l22.81-4,11.4-2,5.7-1c1.9-.33,3.82-.69,5.69-1.15a29.7,29.7,0,0,0,5.45-1.78,6.86,6.86,0,0,0,2.27-1.56,2.25,2.25,0,0,0,.54-1.17,2,2,0,0,0-.28-1.21,6,6,0,0,0-1.85-1.84,19.69,19.69,0,0,0-2.37-1.36,50.17,50.17,0,0,0-5.17-2.15,224.76,224.76,0,0,0-22-6.17c-14.91-3.52-30-6.52-45.11-9.54-7.54-1.52-15.16-2.86-22.37-5.1a47.23,47.23,0,0,1-5.2-1.94,15.8,15.8,0,0,1-2.33-1.28,5,5,0,0,1-1.69-1.67,1.79,1.79,0,0,1,.15-2,6.13,6.13,0,0,1,1.88-1.57,25.68,25.68,0,0,1,5.05-2.12,95.9,95.9,0,0,1,11.12-2.68c3.78-.72,7.6-1.32,11.44-1.85s7.7-1,11.57-1.35S387.7,350.84,391.6,350.69Z" style="fill:#ebebeb"></path></g><g id="freepik--Track--inject-33"><path d="M414.41,130s19.45,137.71-63.94,221.1H56.94C180.37,270.94,171.58,130,171.58,130Z" style="fill:#c7c7c7"></path><path d="M452,130v221.1H350.47C416.38,268.74,414.41,130,414.41,130Z" style="fill:#dbdbdb"></path><polygon points="436.27 129.96 430.27 129.96 430.27 116.31 185.97 116.31 185.97 129.96 179.97 129.96 179.97 110.31 436.27 110.31 436.27 129.96" style="fill:#455a64"></polygon><rect x="218.81" y="113.31" width="6" height="16.65" style="fill:#455a64"></rect><rect x="272.73" y="113.31" width="6" height="16.65" style="fill:#455a64"></rect><rect x="326.66" y="113.31" width="6" height="16.65" style="fill:#455a64"></rect><rect x="380.58" y="113.31" width="6" height="16.65" style="fill:#455a64"></rect></g><g id="freepik--Floor--inject-33"><polygon points="40.18 351.06 92.64 350.82 145.09 350.73 250 350.56 354.91 350.73 407.36 350.82 459.82 351.06 407.36 351.31 354.91 351.39 250 351.56 145.09 351.39 92.64 351.31 40.18 351.06" style="fill:#263238"></polygon></g><g id="freepik--Character--inject-33"><path d="M155,431.46h10.79a0,0,0,0,1,0,0v27.07a0,0,0,0,1,0,0H155a9,9,0,0,1-9-9v-9A9,9,0,0,1,155,431.46Z" transform="translate(277.4 900.56) rotate(-175.64)" style="fill:#22A948"></path><path d="M155,431.46h10.79a0,0,0,0,1,0,0v27.07a0,0,0,0,1,0,0H155a9,9,0,0,1-9-9v-9A9,9,0,0,1,155,431.46Z" transform="translate(277.4 900.56) rotate(-175.64)" style="opacity:0.1"></path><path d="M156.36,458.62l-16.09-1.23a10.88,10.88,0,0,1-10-11.68l.4-5.3a10.88,10.88,0,0,1,11.68-10l16.08,1.22c-6-.45-10.49,4.09-10.94,10.07l-.41,5.31C146.61,453,150.36,458.16,156.36,458.62Z" style="fill:#22A948"></path><path d="M160.52,445.13c-.27,3.61-1.89,6.42-3.62,6.29s-2.9-3.16-2.62-6.76,1.89-6.42,3.62-6.28S160.8,441.53,160.52,445.13Z" style="opacity:0.1"></path><polygon points="157.59 442.3 157.23 447.05 192.75 449.76 193.12 445.01 179.02 441.15 179.63 433.24 172.44 432.69 171.85 440.41 157.59 442.3" style="fill:#c7c7c7"></polygon><path d="M215.71,436h9a0,0,0,0,1,0,0V463a0,0,0,0,1,0,0h-9a10.88,10.88,0,0,1-10.88-10.88v-5.32A10.88,10.88,0,0,1,215.71,436Z" transform="translate(394.71 914) rotate(-175.64)" style="fill:#22A948"></path><path d="M215.71,436h9a0,0,0,0,1,0,0V463a0,0,0,0,1,0,0h-9a10.88,10.88,0,0,1-10.88-10.88v-5.32A10.88,10.88,0,0,1,215.71,436Z" transform="translate(394.71 914) rotate(-175.64)" style="opacity:0.1"></path><path d="M215.27,463.11l-16.09-1.23a10.88,10.88,0,0,1-10-11.68l.41-5.3a10.87,10.87,0,0,1,11.67-10l16.08,1.22c-6-.45-10.49,4.09-10.94,10.07l-.41,5.31C205.52,457.48,209.27,462.65,215.27,463.11Z" style="fill:#22A948"></path><path d="M219.43,449.63c-.27,3.6-1.89,6.41-3.62,6.28s-2.9-3.16-2.62-6.76,1.89-6.42,3.62-6.28S219.71,446,219.43,449.63Z" style="opacity:0.1"></path><path d="M265.92,378.08h9a0,0,0,0,1,0,0v27.07a0,0,0,0,1,0,0h-9A10.88,10.88,0,0,1,255,394.28V389a10.88,10.88,0,0,1,10.88-10.88Z" transform="translate(499.39 802.24) rotate(-175.64)" style="fill:#22A948"></path><path d="M265.92,378.08h9a0,0,0,0,1,0,0v27.07a0,0,0,0,1,0,0h-9A10.88,10.88,0,0,1,255,394.28V389a10.88,10.88,0,0,1,10.88-10.88Z" transform="translate(499.39 802.24) rotate(-175.64)" style="opacity:0.1"></path><path d="M265.48,405.24,249.4,404a10.89,10.89,0,0,1-10-11.68l.41-5.3a10.87,10.87,0,0,1,11.67-10l16.09,1.22c-6-.45-10.49,4.09-11,10.07l-.4,5.31C255.73,399.61,259.49,404.78,265.48,405.24Z" style="fill:#22A948"></path><ellipse cx="266.52" cy="391.52" rx="6.54" ry="3.13" transform="translate(-144.12 627.51) rotate(-85.64)" style="opacity:0.1"></ellipse><polygon points="266.72 388.92 266.35 393.67 301.88 396.38 302.24 391.63 288.15 387.77 288.75 379.86 281.57 379.31 280.98 387.03 266.72 388.92" style="fill:#c7c7c7"></polygon><path d="M323,382.57h10.79a0,0,0,0,1,0,0v27.07a0,0,0,0,1,0,0h-9A10.88,10.88,0,0,1,314,398.77v-7.15a9,9,0,0,1,9-9Z" transform="translate(616.7 815.69) rotate(-175.64)" style="fill:#22A948"></path><path d="M323,382.57h10.79a0,0,0,0,1,0,0v27.07a0,0,0,0,1,0,0h-9A10.88,10.88,0,0,1,314,398.77v-7.15a9,9,0,0,1,9-9Z" transform="translate(616.7 815.69) rotate(-175.64)" style="opacity:0.1"></path><path d="M324.39,409.73l-16.08-1.23a10.88,10.88,0,0,1-10-11.67l.41-5.31a10.87,10.87,0,0,1,11.67-10l16.09,1.22c-6-.45-10.49,4.09-10.95,10.07l-.4,5.31C314.64,404.1,318.4,409.27,324.39,409.73Z" style="fill:#22A948"></path><path d="M328.56,396.25c-.28,3.6-1.9,6.41-3.62,6.28s-2.9-3.16-2.63-6.76,1.9-6.42,3.62-6.28S328.83,392.64,328.56,396.25Z" style="opacity:0.1"></path><path d="M289.92,341.65c2.5-1,44.31-1.25,51.08.24.46.1.64,5.19.7,5.55.38,2.2-4.54,12.81-10.17,16.72S244,413.58,184,432.64c-13.55,4.3-38.92,4.66-41.76-3.75a14.13,14.13,0,0,1-.43-5.51c1-3.35,4.73-5.69,12.39-11,34.51-24.05,119.58-59.2,122-60S288.35,342.27,289.92,341.65Z" style="fill:#37474f"></path><path d="M290.21,337.9c2.66-1,48.88,2.84,50.79,4s-4.86,15.64-10.49,19.54-86.18,48.39-146.21,67.45c-19.49,6.19-64.32,3.77-29.81-20.28s119.59-59.19,122-60S288.63,338.51,290.21,337.9Z" style="fill:#263238"></path><path d="M236.07,160.79c9.49,7.14,19.69,17.3,31.8,19.49,9.5,1.7,19.07-1.81,27.05-6.75,17.55-10.88,33.36-32.1,25.34-53.59-3.2-8.59-15.57-18.13-25.23-14.12-4.95,2.07-8.52,6.11-12.53,9.53-5.26,4.53-11.12,5.44-18,4.48-13.46-1.85-14.16-6.11-25.68-12.57-2.15-1.2-10.41-2.89-13.47-2.06a16.66,16.66,0,0,0-8,4,16.66,16.66,0,0,0-5.61,5.86c-2.78,5.15-1.5,12.8-1.28,18.42s2,9.41,6.5,12.93C223.25,151.3,229.7,156,236.07,160.79Z" style="fill:#263238"></path><path d="M239.86,165.16c-8.29-7.1-16.42-14.35-24.6-21.56,0,0,0-.12.06-.08,6.91,5.73,13.88,11.36,20.72,17.19s13.19,12,20.37,17.14c16.1,11.45,34.2-.79,42.88-15.21.4-.66,1.4.05,1,.7-8,12.42-22.14,24.13-37.91,18.76C253.73,179.16,246.63,171,239.86,165.16Z" style="fill:#263238"></path><path d="M231.44,106.65a.16.16,0,0,1,.18-.27c9.26,5.72,19.51,13.26,30.81,13.49a27.63,27.63,0,0,0,15.69-4.53c3.68-2.43,6.24-5.92,9.34-9,12.11-11.92,30.8.65,31.22,15.61,0,.32-.53.35-.55,0-.81-10.88-9.42-20.17-20.84-19.55-9.16.51-13.3,10.66-20.84,14.74C260.82,125.62,244.28,115.82,231.44,106.65Z" style="fill:#263238"></path><path d="M216,178.43c.21,19.53,8.4,59.6,15.69,75.25,3.15,6.75,21.43,33.52,36.34,42.43,5.57,3.32,27.5-27.82,21.86-32.09-3.84-2.91-25.83-27.92-28-31-4.06-5.69-24.51-44-33-61C224,162.38,215.83,165.41,216,178.43Z" style="fill:#f7a9a0"></path><path d="M262.31,291.47c.46.54,6.95,8.24,11.43,11.92,3.34,2.74,13.17,10.37,16.56,7,2.31-2.3-2.95-7.47-6.58-11.21-1.92-2-3.74-5.64-2.41-6.84,2.32-2.1,7.19,3.09,10.15,7.08,5.73,7.69,12.33,23.56,18.65,21.68,2.39-.71,1.63-7.78-.25-11.67,3.55,5.12,6.79,11.53,9.47,10.84,1.54-.38,3-3.26,2.93-4.92,1.29,1.13,2.65,1.6,4,1,2.28-1,2.56-3.74,1.9-7a2.07,2.07,0,0,0,1.84-.32c5.52-3.67-4.94-25.46-10.14-29.31-15.28-11.33-33.54-18.26-33.54-18.26C277.35,264,262.31,291.45,262.31,291.47Z" style="fill:#f7a9a0"></path><path d="M294.05,286.52a31.37,31.37,0,0,1,9.48,9.23c3.09,4.69,4.53,9.25,6.71,14.16a.11.11,0,0,1-.2.09c-1-2.33-5.62-11.39-6.88-13.54a29.87,29.87,0,0,0-9.16-9.88S294,286.49,294.05,286.52Z" style="fill:#263238"></path><path d="M300.31,280.66c3.95,3.13,8,6.33,11.25,10.23,3.55,4.26,5.49,9.56,7.43,14.68q1.75,4.64,3.29,9.32c0,.13-.15.23-.2.09q-2.91-7.91-6.29-15.63A39.57,39.57,0,0,0,307,286.6c-2.14-2.07-4.43-4-6.73-5.87C300.22,280.69,300.27,280.62,300.31,280.66Z" style="fill:#263238"></path><path d="M307.8,276.39c4,2.75,7.42,5.14,10.27,9.11,3.78,5.27,6.47,12.57,7.41,15.15,1,2.85,2,5.73,2.87,8.63,0,.12-.17.19-.21.07a157.25,157.25,0,0,0-7.64-18.81,31,31,0,0,0-5.34-8,57,57,0,0,0-7.38-6.13S307.78,276.37,307.8,276.39Z" style="fill:#263238"></path><path d="M218.23,205.86l25.53-8.5s-9-20.09-16-30.55-13-3.9-12.29,14.44S218.23,205.86,218.23,205.86Z" style="fill:#22A948"></path><path d="M240.11,192.61q-5.45,1.51-10.81,3.3c-1.76.58-3.54,1.15-5.28,1.77s-3.57,1.4-5.38,2c-.13.05-.08.25.05.21,1.77-.56,3.58-1,5.36-1.53s3.63-1.19,5.45-1.79q5.37-1.79,10.65-3.84C240.25,192.73,240.21,192.58,240.11,192.61Z" style="fill:#263238"></path><path d="M240.44,198.47l-22.22,7.39s-2.06-6.28-2.81-24.61c-.58-14.4,3-21.53,7.94-18.88Z" style="opacity:0.1"></path><polygon points="246.03 197.75 244.08 194.46 216.5 204.94 217.38 208.46 246.03 197.75" style="fill:#263238"></polygon><path d="M226.68,221.14l.85,20.6-70.94-17.58s24.84-46.8,45.46-62.53c10.67-8.14,22.84-2.35,26,6.81.8,2.32,9.7,28.7,7.18,39A25.56,25.56,0,0,1,226.68,221.14Z" style="fill:#22A948"></path><path d="M219.27,212.41a52.88,52.88,0,0,0-9.16-.7c-1.53,0-3.06.15-4.59.3-.77.08-1.53.13-2.29.17a8.6,8.6,0,0,1-2.38-.12c-.07,0-.1.1,0,.12a15,15,0,0,0,2.17.54,13.22,13.22,0,0,0,2.18.11c1.56,0,3.11-.12,4.67-.16,3.13-.07,6.27-.15,9.39,0C219.37,212.71,219.41,212.43,219.27,212.41Z" style="fill:#263238"></path><path d="M225.68,217.4a58.37,58.37,0,0,0-7.16-2.39c-1.22-.31-2.45-.54-3.69-.73L213,214c-.66-.07-1.34-.05-2-.14-.07,0-.11.11,0,.12.62.11,1.21.33,1.82.48l1.83.44c1.22.29,2.43.6,3.65.88,2.45.57,4.88,1.16,7.31,1.82C225.75,217.66,225.8,217.45,225.68,217.4Z" style="fill:#263238"></path><path d="M193.33,165.64c-8.34-10-34.48-42-36.92-47.25-8.67-18.55,16.78-28.84,21.25-25.33C186,99.62,196,127.4,204.2,150.22,207.93,160.64,207.93,183.11,193.33,165.64Z" style="fill:#f7a9a0"></path><path d="M220.77,95.21c3-4-15.81-35.1-22-31-22.63,15-41.78,35.56-43.51,42.21A13.58,13.58,0,0,0,169.64,123C183.34,122.08,217.83,99.22,220.77,95.21Z" style="fill:#f7a9a0"></path><path d="M180,120.61c14.67-4.41,31.49-17.78,31.52-17.8.26-.12.16-.52,0-.45-2.7,1.32-21.31,13.54-31.62,17.83C179.81,120.23,179.89,120.64,180,120.61Z" style="fill:#263238"></path><path d="M197,65.47c3-3.12,18.26-16.46,23.28-19.15s20.05-9.41,22.5-5.77-1.79,6-1.79,6,6.79-1.82,8.93,2.06-4.58,7.28-4.58,7.28,7.12-1.37,9,2.66-5.47,6.3-5.47,6.3,6.44-1.56,6.58,2.41c.15,4.76-12.05,6.29-17.37,9.68-1.21.77-23.39,17.35-23.39,17.35Z" style="fill:#f7a9a0"></path><path d="M249.51,64.59c-9,1.14-12.7,3.19-19.57,8.86-.13.11-.33-.06-.2-.19,6.22-6.16,10.52-9.41,19.73-9.11C249.92,64.17,249.93,64.54,249.51,64.59Z" style="fill:#263238"></path><path d="M246.1,55.76c-9.22,2-13.28,4.19-20.91,9.59-.11.08-.25-.1-.14-.18,7-5.93,11.41-9.07,20.87-9.86C246.35,55.27,246.52,55.67,246.1,55.76Z" style="fill:#263238"></path><path d="M240.65,46.79c-8.78,2.58-13.33,4.79-20.07,11a.17.17,0,0,1-.24-.24c6.25-7,11.92-9.78,20.21-11C241.11,46.45,241.21,46.63,240.65,46.79Z" style="fill:#263238"></path><path d="M210.38,97.94s11.31.67,16.34-.13,22.7-10.69,20.78-14.63c-2.48-5.08-13.8-1.38-19.11,1.16,0,0-5.72-11.76-14.42-10.86S210.38,97.94,210.38,97.94Z" style="fill:#f7a9a0"></path><path d="M246.36,82c-5.6-3-12.36.78-17.69,2.85a.52.52,0,0,1-.73-.44c-2.73-4.77-8-10.71-13.74-11.22a.13.13,0,0,1,0-.26c6.27-.3,11.89,5.11,14.54,10.53,5.44-2.21,12.38-5.71,17.65-1.51A0,0,0,1,1,246.36,82Z" style="fill:#263238"></path><path d="M195.93,126.16,171.56,141s14,18.63,23.84,27.77,14.4.92,9.28-17.84S195.93,126.16,195.93,126.16Z" style="fill:#22A948"></path><path d="M176.47,145.05q5.26-2.87,10.38-6c1.68-1,3.38-2,5-3.08s3.35-2.3,5.07-3.39a.11.11,0,0,0-.11-.2c-1.69,1-3.46,1.87-5.16,2.85s-3.48,2.1-5.21,3.15q-5.13,3.12-10.1,6.49C176.29,145,176.36,145.11,176.47,145.05Z" style="fill:#263238"></path><path d="M192.7,165.94c2,2.37,3.46,5.31,5.37,7.72.05.06,0,.14-.08.09-1-1.15-2.33-2.76-2.79-3.37.13.27.79,2.23,1.07,3.11,0,0-.05.07-.07,0-.45-.81-1.78-4-2-4.66a20.39,20.39,0,0,1-1.61-2.82C192.53,166,192.64,165.86,192.7,165.94Z" style="fill:#263238"></path><polygon points="169.56 140.1 172.09 142.98 197.28 127.61 195.77 124.32 169.56 140.1" style="fill:#263238"></polygon><path d="M213.85,156.76c-3.77.14-6.76,2.22-5.77,5.77s8.84,12.52,14.21,12,5.25-7.82,4.86-9.7S223,156.42,213.85,156.76Z" style="fill:#263238"></path><path d="M210.65,160.42c.06,1.37,6.21,10.46,12.33,10.37,2.47,0,2.42-8.91,2.42-8.91l.33-.76,4.54-10.62-11.48-10.78-1.67-1.45s-1.05,3-2.32,6.72l-.18.53c-.08.21-.16.41-.22.61-.2.55-.4,1.12-.58,1.69s-.29.85-.42,1.31-.28.91-.43,1.37A74.65,74.65,0,0,0,210.65,160.42Z" style="fill:#f7a9a0"></path><path d="M230.27,150.5,228,155.82c-5.77,2.6-13.56-.92-15.91-2.11.27-1.05.57-2.13.89-3.21l.42-1.36c.14-.47.28-.89.42-1.32s.39-1.14.58-1.69c.07-.2.14-.4.22-.61l.18-.53c1.27-3.74,2.32-6.72,2.32-6.72l1.68,1.45Z" style="fill:#263238"></path><path d="M204.06,127.88c-5.7,19.47,5.31,25.08,9.51,26.3,3.81,1.12,16.93,4.42,24.61-14.35s.43-27.57-8.15-30.58S209.76,108.42,204.06,127.88Z" style="fill:#f7a9a0"></path><path d="M220.07,111.38s-1.3,3-.61,5.45c1.43,5,7.11,4.62,8.69,6.75s.29,5.49,1.61,7.46c1.82,2.74,5,2.27,5.07,3.94s.33,7,2.23,7.93,16.54-31.74-9.83-34.72c0,0-3.35-2.07-9.39,0-6.66,2.22-11,12.18-11,12.18s.16-.12,1.18-.79c1.45-1,2.1-1.93,3.15-2.52,1.64-.94,2.37-.38,4.06-1.28A17.74,17.74,0,0,0,220.07,111.38Z" style="fill:#263238"></path><path d="M220.71,110a18.61,18.61,0,0,0-1.42,4,7.82,7.82,0,0,0-.08,4.07,5.53,5.53,0,0,0,2.63,2.87c1.17.66,2.52,1,3.77,1.76a4.18,4.18,0,0,1,1.54,1.63,5.66,5.66,0,0,1,.44,2.18,7.67,7.67,0,0,0,.86,3.94,4.52,4.52,0,0,0,3.27,2.06c1.32.2,2.84,0,4,.84-1.25-.69-2.68-.41-4.07-.52A4.87,4.87,0,0,1,228,130.7a7.56,7.56,0,0,1-1-4.19,5.2,5.2,0,0,0-.41-1.94,3.49,3.49,0,0,0-1.33-1.34c-1.11-.71-2.48-1.09-3.72-1.81a6.84,6.84,0,0,1-1.7-1.34,4.33,4.33,0,0,1-1.11-1.9,8.11,8.11,0,0,1,.25-4.32A19.46,19.46,0,0,1,220.71,110Z" style="fill:#263238"></path><path d="M220,111.1a14.74,14.74,0,0,1-1.85,3.51,7,7,0,0,1-3.1,2.55,9.84,9.84,0,0,1-1.93.44,3.16,3.16,0,0,0-1.57.75,9.72,9.72,0,0,1-1.39,1.41,4.42,4.42,0,0,1-1.82.74,5,5,0,0,0,1.62-1,10.33,10.33,0,0,0,1.22-1.5,3.37,3.37,0,0,1,1.82-1,10.53,10.53,0,0,0,1.82-.45,7.25,7.25,0,0,0,2.91-2.27A27.1,27.1,0,0,0,220,111.1Z" style="fill:#263238"></path><path d="M233.19,139.24s5.32-5.6,7.92-3.6-2.06,10.56-5.58,11.3a3.44,3.44,0,0,1-4.27-2.52Z" style="fill:#f7a9a0"></path><path d="M239.72,138.06c.05,0,.05.08,0,.09-2.48.59-4,2.58-5.24,4.69a1.88,1.88,0,0,1,2.87-.08c.06.05,0,.13-.08.11a2.1,2.1,0,0,0-2.4.38,9.79,9.79,0,0,0-1.38,1.69c-.15.19-.51,0-.39-.2l0-.06C233.52,141.69,236.47,137.87,239.72,138.06Z" style="fill:#263238"></path><path d="M209.78,126.19c.47.06.92,0,1.4.06a2.33,2.33,0,0,0,1.45-.22.74.74,0,0,0,.22-.86,1.82,1.82,0,0,0-1.62-.84,2.68,2.68,0,0,0-1.84.49A.78.78,0,0,0,209.78,126.19Z" style="fill:#263238"></path><path d="M222.83,131.54a10.82,10.82,0,0,1-1.38-.26,2.21,2.21,0,0,1-1.36-.53.72.72,0,0,1,0-.89,1.79,1.79,0,0,1,1.76-.46,2.71,2.71,0,0,1,1.68.9A.77.77,0,0,1,222.83,131.54Z" style="fill:#263238"></path><path d="M219.48,133.3c0-.05.09.09.07.14-.43,1.33-.7,2.91.38,3.7,0,0,0,.09,0,.07C218.49,136.58,218.86,134.48,219.48,133.3Z" style="fill:#263238"></path><path d="M221.08,132.25c2.19.46,1.11,4.81-.92,4.38S219.24,131.87,221.08,132.25Z" style="fill:#263238"></path><path d="M221.87,132.69c.32.34.59.87,1,1s1-.17,1.49-.53c.05,0,.07,0,.06.07-.19.84-.73,1.61-1.65,1.52s-1.25-1-1.25-1.86C221.55,132.75,221.75,132.56,221.87,132.69Z" style="fill:#263238"></path><path d="M211.53,131s-.12,0-.13.1c-.21,1.37-.69,2.91-2,3.13,0,0,0,.07,0,.07C210.93,134.42,211.55,132.37,211.53,131Z" style="fill:#263238"></path><path d="M210.58,129.39c-2.16-.59-3.16,3.78-1.16,4.32S212.39,129.87,210.58,129.39Z" style="fill:#263238"></path><path d="M209.67,129.42c-.44.16-.91.51-1.38.45s-.84-.62-1.09-1.14c0-.06-.07,0-.08,0a1.64,1.64,0,0,0,.78,2.1c.8.3,1.55-.3,2-1.1C209.93,129.62,209.85,129.35,209.67,129.42Z" style="fill:#263238"></path><path d="M215.93,143.76c-.39.26-.8.64-1.3.58a3.67,3.67,0,0,1-1.4-.62s-.09,0-.07.06a1.87,1.87,0,0,0,1.59,1.07,1.47,1.47,0,0,0,1.3-1C216.09,143.78,216,143.73,215.93,143.76Z" style="fill:#263238"></path><path d="M211.53,137.48a29.77,29.77,0,0,0-1,2.89c0,.09.19.19.51.29,0,0,0,0,0,0a4.65,4.65,0,0,0,4.8-.58.1.1,0,0,0-.11-.17,7,7,0,0,1-4.41.15c0-.28,1.45-3.28,1.3-3.33a8.08,8.08,0,0,0-2.27-.05c1.51-4.09,3.67-7.91,5.12-12,0-.15-.16-.25-.24-.13-2.54,3.84-4.39,8.51-6.06,12.69C209,137.77,211.11,137.55,211.53,137.48Z" style="fill:#263238"></path><path d="M211.2,140.33a5.64,5.64,0,0,0,1.63,2.35,2.45,2.45,0,0,0,1.43.55c1.15.06,1.49-.91,1.55-1.8a6,6,0,0,0-.07-1.42A7.24,7.24,0,0,1,211.2,140.33Z" style="fill:#263238"></path><path d="M212.83,142.68a2.45,2.45,0,0,0,1.43.55c1.15.06,1.49-.91,1.55-1.8A2.6,2.6,0,0,0,212.83,142.68Z" style="fill:#ff9bbc"></path><path d="M327,382.23c-2.94.62-84-9.13-86.87-11.46-1.1-.87-.36-12.77.93-27.11,0-.15,0-.3.05-.45.26-3,5.13-28.28,5.13-28.28l51.94,6.71-4.7,27.27-.12.89s29.36,17.61,32.23,20.5S330,381.63,327,382.23Z" style="fill:#f7a9a0"></path><path d="M327.46,382.4c-3,.62-84.88-8.94-87.77-11.28-1.1-.88-.41-12.89.85-27.37l52.82,6s29.72,17.68,32.62,20.59S330.43,381.78,327.46,382.4Z" style="fill:#22A948"></path><path d="M326.66,379c-13.69-1.94-69.09-8.48-82.77-9.35-.11,0-.12.07,0,.08,13.53,2.22,69,8.3,82.76,9.49C326.93,379.24,327,379,326.66,379Z" style="fill:#263238"></path><path d="M321.05,366.79a11.07,11.07,0,0,0-8.6,2.39,10.78,10.78,0,0,0-3.93,7c0,.08.15.1.17,0A12.82,12.82,0,0,1,321,367C321.14,367,321.16,366.8,321.05,366.79Z" style="fill:#263238"></path><path d="M291.6,351.61c-5.49-.72-12.09.48-16,4.57-.15.16.08.37.25.31a76.8,76.8,0,0,1,15.79-4.2A.34.34,0,0,0,291.6,351.61Z" style="fill:#263238"></path><path d="M295.65,353.76c-5.49-.72-12.09.47-16,4.57-.15.16.08.37.25.31a76.8,76.8,0,0,1,15.79-4.2A.34.34,0,0,0,295.65,353.76Z" style="fill:#263238"></path><path d="M299.7,355.91c-5.49-.72-12.09.47-16,4.57-.15.16.08.37.25.31a76.8,76.8,0,0,1,15.79-4.2A.34.34,0,0,0,299.7,355.91Z" style="fill:#263238"></path><path d="M303.75,358.05c-5.49-.71-12.09.48-16,4.58-.15.16.08.37.25.31a76.8,76.8,0,0,1,15.79-4.2A.35.35,0,0,0,303.75,358.05Z" style="fill:#263238"></path><path d="M248.91,357c-6.16-.71-7.26,8.88-1.09,9.58S255.09,357.71,248.91,357Z" style="fill:#263238"></path><path d="M299.25,337.64c-2.51-2.63-6.28-.79-8.28,1.41a29,29,0,0,0-6.63,13.47.14.14,0,0,0,.15.17.68.68,0,0,0,.94.56c4.23-2.25,9-4.13,12.44-7.61C299.86,343.61,301.62,340.13,299.25,337.64Zm-8.11,10.89c-2.05,1.16-4.15,2.21-6.16,3.44a86.9,86.9,0,0,1,4-7.78,32.41,32.41,0,0,1,2.44-3.48c1.41-1.67,7.34-5.63,7.19.41C298.57,344.45,293.59,347.15,291.14,348.53Z" style="fill:#263238"></path><path d="M270.45,353c4.7,1.29,9.79.51,14.58.33a.68.68,0,0,0,.53-1,.15.15,0,0,0,0-.23,29.06,29.06,0,0,0-12.5-8.31c-2.83-.89-7-.59-7.87,2.94C264.43,350.08,267.71,352.2,270.45,353Zm-2.95-3.52c-3.17-5.14,3.95-4.7,6-4a32,32,0,0,1,3.85,1.78c2.6,1.37,5,3.08,7.41,4.69-2.36-.05-4.7.09-7,.12C274.91,352.11,269.24,352.28,267.5,349.44Z" style="fill:#263238"></path><path d="M224,229.33s-.49,8.59-.71,11.54c0,0,49.76-.2,67.28,6.14,6.42,2.32,17.69,16.93,17.91,24.35.93,32.15-13.86,73.52-13.86,73.52l-53-5.23,7.39-40.71c1.81.33-55.32,21.68-82.77-22.14-8.94-14.29-8.64-52.53-8.64-52.53Z" style="fill:#37474f"></path><path d="M170.92,273.57a31.81,31.81,0,0,1-5.48,1.76l-.15-.28a32.75,32.75,0,0,0,5.13-1.59,12.07,12.07,0,0,0,6.89-6.73c1.08-2.79,1-6.19-1.59-8.14-3.09-2.36-7.39-1.22-10.41.64a42.59,42.59,0,0,0-4.2,3.11c0-.1-.05-.21-.07-.31l.84-.67c2.69-2.14,5.63-4.21,9.19-4.37a6.73,6.73,0,0,1,6.64,3.63c1,2.33.51,5.09-.61,7.29A12.27,12.27,0,0,1,170.92,273.57ZM198.65,263c-3-.75-6.23.19-8.8,1.69a20.89,20.89,0,0,0-6.18,5.85c-3.72,5.05-5.89,11-8.9,16.45l-.18.32.14.15c1.92-3.52,3.56-7.19,5.45-10.75,2.82-5.32,6.53-11,12.55-13,3.28-1.08,7.27-1,9.47,2a10.29,10.29,0,0,1,1.34,8c-1.38,6.9-8.2,10.56-13.09,14.84a22.34,22.34,0,0,0-5.45,7l.3.19a19.5,19.5,0,0,1,4.64-6.24c4.7-4.32,11.47-7.72,13.54-14.17C204.94,270.83,204,264.42,198.65,263Zm-33.11-38.17-.57,0c-.29.27-.59.53-.88.78a57.23,57.23,0,0,1-6.35,4.95c0,.14,0,.29,0,.44.41-.25.81-.52,1.2-.79A67.14,67.14,0,0,0,165.54,224.87Zm13.07,18.53c6.2,2.37,13-1.47,17.78-5.22A81.27,81.27,0,0,0,206.71,228l-.43,0c-1.57,1.81-3.17,3.58-4.86,5.27-5,5-11.33,10.4-18.73,10.5a9.2,9.2,0,0,1-8.45-4.56,11.59,11.59,0,0,1-.41-9.37,13.36,13.36,0,0,1,2.46-4.13l-.4,0A14,14,0,0,0,173.8,229C171.5,234.22,172.85,241.2,178.61,243.4Zm48.89-2.51a41.16,41.16,0,0,1-23.58,11.89,41.85,41.85,0,0,1-22.81-3.3c-6.54-3-12.27-8.17-19.56-9.3a18,18,0,0,0-3.36-.2l0,.34a18.45,18.45,0,0,1,5.12.56c7.2,1.86,12.92,7.14,19.79,9.79A42.29,42.29,0,0,0,205,252.92a41.51,41.51,0,0,0,22.87-12ZM245.94,297c3.87-5.58,4.3-12.78,3.54-19.33-.93-8-3.83-15.69-4.53-23.76a31.28,31.28,0,0,1,1.32-12.54H246c-.19.53-.36,1.06-.5,1.6-2.11,7.83-.28,15.89,1.54,23.58,1.73,7.29,3.45,14.83,2,22.33a20.13,20.13,0,0,1-4.43,9.53c-1.35,1.52-3.32,2.9-5.46,2.28-1.87-.55-3.21-2.31-4.05-4-3.64-7.21.35-15.4,1.43-22.71a17.25,17.25,0,0,0-1-9.87,10.7,10.7,0,0,0-5.9-5.79c-5.82-2-10.34,3.37-11.62,8.47-1.9,7.54,2.3,15,1.87,22.59a22.77,22.77,0,0,1-6.72,14.82l.4,0a22.17,22.17,0,0,0,4.32-6.05,23,23,0,0,0,2.33-9.66c.06-4-1-8-1.74-11.9-.67-3.65-1-7.35.18-10.93,1-2.9,2.9-5.78,5.84-7a7.83,7.83,0,0,1,8.66,2.32,13.71,13.71,0,0,1,3.36,9.75c-.17,7.6-4.3,14.8-2.83,22.5.54,2.86,2.1,6.32,5,7.48C241.68,302,244.34,299.31,245.94,297Zm22.8-22c3.32-.73,6.23-3.26,8.49-5.69a71,71,0,0,0,6.25-8.18c3-4.28,6.47-9,11.12-11.66l-.17-.13a25.6,25.6,0,0,0-5.65,4.51c-4.9,5.14-8,11.79-13.18,16.66-2.58,2.41-6.54,5.35-10.29,4.06-2.91-1-4.47-4.25-4.67-7.15-.53-7.48,7.2-12.24,11.62-17.07a19,19,0,0,0,4.13-6.48l-.32,0a16.57,16.57,0,0,1-2.87,5c-4.2,5.17-11.35,9.08-12.74,16.08C259.46,269.93,262.92,276.3,268.74,275Zm11,64.7c-4.23-.43-8.16.86-12,2.52l.58.06A36.85,36.85,0,0,1,272,341c3.32-1,7-1.54,10.34-.38a10,10,0,0,1,4.85,3.58l.43,0c-.14-.2-.28-.4-.44-.6A10.91,10.91,0,0,0,279.72,339.7Zm7.56-9.09c-3.46-1.55-6.75-3.45-10.2-5a41.36,41.36,0,0,0-11.23-3.43c-6.78-1-14.45-.52-20.31,3.39-.53.36-1,.75-1.53,1.16l-.08.46.06-.06c5.74-5,14.22-5.72,21.45-4.7A41.8,41.8,0,0,1,277.35,326c3.44,1.61,6.73,3.51,10.21,5a28.19,28.19,0,0,0,10.14,2.64h.52c0-.09,0-.19.08-.28A28.08,28.08,0,0,1,287.28,330.61Zm-21.59-42.24c4.27-.46,8.51.65,12.57,1.86,7.4,2.2,15.13,5.12,22.92,3.12a23,23,0,0,0,6.32-2.68l0-.33a22.25,22.25,0,0,1-5.64,2.55c-8.09,2.36-16.16-.77-23.87-3.07-6.68-2-15-3.57-20.57,1.88-4.44,4.36-3.17,10.93.78,15.14,5,5.39,12.77,5.51,19.52,3.93,8-1.88,15.49-6.16,23.83-6.7a20.66,20.66,0,0,1,3.84.12c0-.1,0-.21.05-.31-6.44-.77-13,1.7-19,3.84-7.38,2.65-16.56,5.81-24.09,1.87-5.49-2.88-9.82-10.21-6-16C258.42,290.45,262.09,288.75,265.69,288.37Z" style="fill:#455a64"></path><polygon points="239.84 340.86 240.79 328.74 298.29 335.94 295.52 347.97 239.84 340.86" style="fill:#455a64"></polygon><path d="M251.33,241.61l-18.9,61.81c-18.63,2.79-48.52,1.53-66.15-26.62-8.94-14.29-8.64-52.53-8.64-52.53L224,229.33s-.49,8.59-.71,11.54C223.31,240.87,236.29,240.82,251.33,241.61Z" style="fill:#263238"></path><path d="M250.84,285.39c-.38,1.7-.75,3.4-1,5.12-.05-1.55-.07-3.09,0-4.63,0-.17-.28-.21-.3,0a23.32,23.32,0,0,0,.08,6.3l0,.2a37.52,37.52,0,0,0-.35,6.94c0,.14.22.17.25,0,.49-2.3.68-4.68.94-7s.39-4.61.6-6.91C251,285.33,250.86,285.31,250.84,285.39Z" style="fill:#263238"></path><path d="M249.17,411.11c-2.95.59-79.9-9.49-82.73-11.85-1.1-.87-.28-12.76,1.11-27.1,0-.15,0-.3,0-.45.28-3,4.91-37.19,4.91-37.19l52,5.71-4.53,37.54-.58,2.07s25.41,17.06,28.25,20S252.12,410.53,249.17,411.11Z" style="fill:#f7a9a0"></path><path d="M249.5,411.76c-3,.59-80.47-9.85-83.33-12.22-1.1-.89-.27-12.9,1.13-27.37l52.5,6.49s-.46,1.12-.18,1.29c3.64,2.23,25.86,17,28.53,19.74C251,402.63,252.48,411.17,249.5,411.76Z" style="fill:#22A948"></path><path d="M248.74,408.34c-13.67-2.09-64.68-9.22-78.35-10.24-.11,0-.12.06,0,.08,13.5,2.36,64.57,9.05,78.34,10.38C249,408.59,249,408.38,248.74,408.34Z" style="fill:#263238"></path><path d="M243.19,396.07c-5.88-.87-11.85-.06-15.32,1.47s-6.31,3.76-6.51,6.62c0,.08.27.12.3,0,2.12-5.19,11.59-8.78,21.51-8C243.37,396.26,243.4,396.1,243.19,396.07Z" style="fill:#263238"></path><path d="M216.91,380.8c-5.43-1.07-12.09-.3-16.29,3.53-.16.15,0,.37.23.32a76.09,76.09,0,0,1,16-3.16A.35.35,0,0,0,216.91,380.8Z" style="fill:#263238"></path><path d="M220.81,383.21c-5.43-1.07-12.09-.31-16.28,3.52-.17.15.05.38.22.33a76.75,76.75,0,0,1,16-3.17A.34.34,0,0,0,220.81,383.21Z" style="fill:#263238"></path><path d="M224.71,385.61c-5.43-1.07-12.09-.3-16.28,3.53-.17.15,0,.38.22.32a76.73,76.73,0,0,1,16-3.16A.35.35,0,0,0,224.71,385.61Z" style="fill:#263238"></path><path d="M228.61,388c-5.42-1.07-12.09-.31-16.28,3.53-.16.15,0,.37.23.32a75.84,75.84,0,0,1,16-3.16A.35.35,0,0,0,228.61,388Z" style="fill:#263238"></path><path d="M175.54,385.52c-6.16-.77-7.36,8.8-1.19,9.57S181.71,386.29,175.54,385.52Z" style="fill:#263238"></path><path d="M225.45,367.35c-2.34-2.78-6.22-1.19-8.35.87a29.05,29.05,0,0,0-7.49,13c0,.11,0,.17.14.18a.68.68,0,0,0,.9.62c4.36-2,9.27-3.54,12.9-6.79C225.67,373.35,227.66,370,225.45,367.35Zm-8.8,10.35c-2.12,1-4.28,1.93-6.36,3a85.43,85.43,0,0,1,4.54-7.5,31.33,31.33,0,0,1,2.66-3.31c1.51-1.58,7.68-5.15,7.14.87C224.33,374.11,219.19,376.48,216.65,377.7Z" style="fill:#263238"></path><path d="M195.72,380.78c4.6,1.59,9.74,1.14,14.53,1.27a.68.68,0,0,0,.59-.92.14.14,0,0,0,0-.22A29,29,0,0,0,199,371.8c-2.76-1.07-7-1.05-8,2.43C189.9,377.52,193,379.85,195.72,380.78Zm-2.72-3.7c-2.83-5.34,4.25-4.44,6.25-3.56a31.22,31.22,0,0,1,3.73,2,85.5,85.5,0,0,1,7.09,5.16c-2.34-.21-4.69-.21-7-.33C200.22,380.22,194.56,380,193,377.08Z" style="fill:#263238"></path><path d="M223.15,351.14l-52.21-4.95,4.33-48.74s-17-3.66-25.33-10.75c-24.88-21.25,6.66-62.5,6.66-62.5l59.73,4.55-48.27-3.68c1.36-2.86,8.32-12.32,15.75-16.73s29.18-7.27,35.9-2.38C249.58,227.68,223.15,351.14,223.15,351.14Z" style="fill:#37474f"></path><path d="M165.53,224.88a68.4,68.4,0,0,1-6.58,5.33,20.22,20.22,0,0,1-8.67,3.79l.25-.44a15.24,15.24,0,0,0,4.08-1.27,41.76,41.76,0,0,0,9.48-6.68c.29-.25.58-.5.87-.77Zm59.41-13.31a21.81,21.81,0,0,0-8.19,5A149.1,149.1,0,0,0,206.28,228c-1.57,1.81-3.17,3.58-4.86,5.27-5,5-11.33,10.4-18.73,10.5a9.2,9.2,0,0,1-8.45-4.56,11.59,11.59,0,0,1-.41-9.37,13.29,13.29,0,0,1,2.45-4.12c3.76-4.36,10-6.45,15.42-7.77,6.43-1.57,14.55-2.53,19-8.1a9.07,9.07,0,0,0,2-6.14l-.34,0a8.66,8.66,0,0,1-2,6,17.88,17.88,0,0,1-8.19,5.19c-3.87,1.34-7.93,2-11.89,3.05-5.15,1.33-10.9,3.52-14.4,7.73h0A13.71,13.71,0,0,0,173.8,229c-2.3,5.21-1,12.19,4.81,14.39,6.2,2.37,13-1.47,17.78-5.22A81.79,81.79,0,0,0,206.7,228c1.75-2,3.47-4,5.23-6,3.56-4,7.83-8.78,13.12-10.3Zm-61.6,29.31c7.2,1.86,12.92,7.14,19.79,9.79A42.29,42.29,0,0,0,205,252.92a41.8,41.8,0,0,0,27.48-17.66l-.06-.41a41.22,41.22,0,0,1-51.35,14.63c-6.54-3-12.27-8.17-19.56-9.3-5.85-.9-11.94,1.14-16.62,4.75l-.23.56C149.86,241.34,156.86,239.21,163.34,240.88Zm13.76,27c1.12-2.2,1.66-5,.61-7.29a6.73,6.73,0,0,0-6.64-3.63c-3.56.16-6.5,2.23-9.19,4.37-2.89,2.31-5.73,4.48-9.3,5.62-3.22,1-6.91,1.25-9.93-.49a8.69,8.69,0,0,1-2.26-1.9c0,.15,0,.31,0,.46,4.11,4.46,11.08,3.27,16,.63,3.26-1.76,5.82-4.51,9-6.45s7.32-3,10.41-.64c2.55,2,2.67,5.35,1.59,8.14a12.07,12.07,0,0,1-6.89,6.73c-3.52,1.48-7.33,2-11,3a26.19,26.19,0,0,0-9.1,4.42,27.64,27.64,0,0,0-3.3,3l.23.25a25,25,0,0,1,3-2.8,26.3,26.3,0,0,1,9.69-4.69c3.66-1,7.47-1.49,10.95-3A12.27,12.27,0,0,0,177.1,267.91Zm52.46-9.58c-5.82-2-10.34,3.37-11.62,8.47-1.9,7.54,2.3,15,1.87,22.59a22.13,22.13,0,0,1-21.57,21.07c-3.58.11-7.56-.56-10.55-2.64a8.67,8.67,0,0,1-3.27-9.48,18,18,0,0,1,5.52-8.79c4.7-4.32,11.47-7.72,13.54-14.17,1.46-4.55.52-11-4.83-12.34-3-.75-6.23.19-8.8,1.69a20.89,20.89,0,0,0-6.18,5.85c-3.72,5.05-5.89,11-8.9,16.45a49.5,49.5,0,0,1-6,8.7l.28.08c.62-.7,1.2-1.42,1.76-2.16,3.92-5.21,6.3-11.19,9.33-16.9,2.82-5.32,6.53-11,12.55-13,3.28-1.08,7.27-1,9.47,2a10.29,10.29,0,0,1,1.34,8c-1.38,6.9-8.2,10.56-13.09,14.84-4.32,3.76-8.78,10.43-5.78,16.3,1.47,2.89,4.53,4.45,7.55,5.22a22.45,22.45,0,0,0,25.59-12,23,23,0,0,0,2.33-9.66c.06-4-1-8-1.74-11.9-.67-3.65-1-7.35.18-10.93,1-2.9,2.9-5.78,5.84-7a7.83,7.83,0,0,1,8.66,2.32,11.53,11.53,0,0,1,.84,1v-.47A9.49,9.49,0,0,0,229.56,258.33Zm-37.21,70.58c-2.21-5.43-7.54-9.89-13.61-9.65a13.22,13.22,0,0,0-5.54,1.48l0,.41a12.73,12.73,0,0,1,4.16-1.41c6.84-1.07,13.07,4.07,15.1,10.36,1.26,3.91.69,8,.54,12.07a23.23,23.23,0,0,0,.47,6.15l.35,0C192.32,342,194.88,335.15,192.35,328.91Zm33.88-18.4c-5.81-1.91-10.84,3.39-12.56,8.43-2.54,7.45,1.31,15.41,2.41,22.76a22.9,22.9,0,0,1-.32,8.74l.3,0a21.23,21.23,0,0,0,.63-4.7c.18-7.79-3.86-15-3.45-22.86.32-6,5.48-14,12.43-12.21a8.07,8.07,0,0,1,4,2.45l.06-.43A8.54,8.54,0,0,0,226.23,310.51Z" style="fill:#455a64"></path><path d="M168.5,223.78c-2.88,2.78-5.11,6.51-7.2,10.36-1.33,2.45-2.55,5-3.7,7.67a27.46,27.46,0,0,0-4.72,6.37c0,.06.06.2.1.14a31.49,31.49,0,0,1,3.75-4.45c-.34.82-.67,1.64-1,2.47a75.81,75.81,0,0,0-2.47,7.68c0,.08.09.18.12.11,1.77-4.18,3.56-8.36,5.51-12.35s4-7.7,6.26-11.32c1.25-2.05,2.49-4.1,3.62-6.3C168.87,224,168.63,223.66,168.5,223.78Z" style="fill:#263238"></path><polygon points="168.78 349.86 169.37 337.72 227.06 343.16 224.66 355.27 168.78 349.86" style="fill:#455a64"></polygon><path d="M228.5,224.8c-2.77.26-5.54.73-8.33.75a29.08,29.08,0,0,0-4.07.09c-1.38.2-2.75.47-4.12.73a45.67,45.67,0,0,0-8,1.85,50.12,50.12,0,0,1-8.18,2.52c-.1,0-.07.27,0,.25a43.36,43.36,0,0,1,8.37-.45,30.09,30.09,0,0,0,5.76-.58,20.9,20.9,0,0,0-3.49,1.06c-1.89.77-3.78,1.59-5.72,2.17-.1,0-.08.26,0,.25a36.1,36.1,0,0,1,5.79-.22c.28,0,.56,0,.83,0-.67.14-1.34.29-2,.49-1,.29-1.91.66-2.87,1-.43.14-.87.28-1.31.39l-.2,0s0,0,0,0a1,1,0,0,0-1.11.41c-.05.06,0,.16,0,.16,1.9,0,3.81.18,5.72.22a48.38,48.38,0,0,0,5.77-.43,37.23,37.23,0,0,0,11.05-2.5c.31-.13.22-.93-.12-1a28.37,28.37,0,0,0-4.87-.16l.29-.07c1.83-.55,3.62-1.36,5.43-2.07.09,0,.06-.27,0-.28a44.49,44.49,0,0,0-5.6-.58,15.54,15.54,0,0,0-1.8.12l.73-.14a27.43,27.43,0,0,0,3.83-1.3,82.36,82.36,0,0,1,8.25-2.22C228.76,225.22,228.71,224.78,228.5,224.8Z" style="fill:#f7a9a0"></path><path d="M221.59,219.83c-1.9-.09-3.79,0-5.69-.1a19,19,0,0,0-5.53.18c-3.66.83-7.14,2.59-10.82,3.34-.11,0-.08.27,0,.25,3.67-.75,7.43-.27,11.15-.56a23.76,23.76,0,0,0,5.39-1.34c1.81-.59,3.68-.9,5.51-1.37C221.81,220.19,221.76,219.84,221.59,219.83Z" style="fill:#f7a9a0"></path><path d="M217.67,240.58c-3.51-.08-7-.73-10.54-.75a15.56,15.56,0,0,0-4.95.85c-1.75.57-3.41,1.44-5.2,1.86-.1,0-.08.26,0,.25a29.67,29.67,0,0,1,5.32.24,20.18,20.18,0,0,0,5.15-.26c3.41-.67,6.75-1.68,10.23-1.87C217.85,240.89,217.81,240.59,217.67,240.58Z" style="fill:#f7a9a0"></path><path d="M182,233.22a54.42,54.42,0,0,0-2.84,10.62c0-2-.06-4-.12-6,0-.16-.27-.2-.29,0a27.93,27.93,0,0,0,.15,7.75c-.48,3.82-.68,7.68-.85,11.53-.37,8.71-.94,17.41-1.53,26.1-.34,4.89-.79,9.77-.95,14.67a.08.08,0,0,0,.16,0c.8-4.21,1.28-8.48,1.73-12.74s.84-8.73,1.14-13.1c.58-8.39.7-16.8,1.33-25.18a58.6,58.6,0,0,1,2.27-13.61C182.19,233.14,182,233.1,182,233.22Z" style="fill:#263238"></path></g></svg>
